<?xml version="1.0" encoding="UTF-8"?>
<svg xmlns="http://www.w3.org/2000/svg" width="1025" height="1025" viewBox="0 0 1025 1024" fill="none" version="1.2" baseProfile="tiny-ps">
  <g id="Frame" clip-path="url(#clip0_1_19)">
    <rect width="1024" height="1024" transform="translate(0.333252)" fill="black"/>
    <g id="Clip path frame" clip-path="url(#clip1_1_19)">
      <path id="Vector" d="M774.333 1024H250.333C112.263 1024 0.333252 912.07 0.333252 774V250C0.333252 111.93 112.263 0 250.333 0H774.333C912.403 0 1024.33 111.93 1024.33 250V774C1024.33 912.07 912.403 1024 774.333 1024Z" fill="black"/>
      <path id="Vector_2" d="M850.41 464.297C850.41 651.078 699.215 802.496 512.705 802.496C326.195 802.496 175 651.078 175 464.297C175 277.512 326.195 126.094 512.705 126.094C699.215 126.094 850.41 277.512 850.41 464.297Z" fill="#27FD33"/>
    </g>
    <g id="Clip path group">
      <mask id="mask0_1_19" style="mask-type:luminance" maskUnits="userSpaceOnUse" x="174" y="126" width="677" height="677">
        <g id="Clip path group_2">
          <mask id="mask1_1_19" style="mask-type:luminance" maskUnits="userSpaceOnUse" x="174" y="126" width="677" height="677">
            <g id="Clip path frame_2" clip-path="url(#clip2_1_19)">
              <path id="Vector_3" d="M174.1 464.3C174.1 651.1 325.5 802.5 512.3 802.5C699.1 802.5 850.5 651.1 850.5 464.3C850.5 277.5 699.1 126.1 512.3 126.1C325.5 126.1 174.1 277.5 174.1 464.3Z" fill="white"/>
            </g>
          </mask>
          <g mask="url(#mask1_1_19)">
            <path id="Vector_4" d="M15 0H1039V1024H15V0Z" fill="white"/>
          </g>
        </g>
      </mask>
      <g mask="url(#mask0_1_19)">
        <path id="Vector_5" d="M535.055 414.477C535.949 418 536.559 423.148 538.434 426.941C540.477 431.066 543.539 434.27 546.469 437.273C549.133 440.008 552.07 442.43 555.125 444.129C565.016 449.645 564.766 453.387 569.746 437.234C579.824 439.891 590.004 442.738 600.25 445.297C615.277 449.051 618.695 444.496 617.02 420.543C610.773 419.855 604.246 419.789 597.863 418.211C594.816 417.461 591.238 414.762 589.355 411.27C586.863 406.648 585.789 400.387 583.934 394.199C579.629 395.086 576.145 395.781 578.117 405.168C578.852 408.652 577.051 413.25 576.395 417.34C575.664 417.594 574.93 417.855 574.195 418.117C570.59 411.145 565.164 404.816 563.977 397.07C562.469 387.285 559.297 383.109 553.887 379.586C550.109 377.129 546.898 372.785 543.477 369.297C542.98 370.262 542.484 371.219 541.988 372.184C547.91 379.145 553.922 386.125 560.418 393.586C557.207 400.906 553.832 408.52 549.945 417.164C547.27 415.145 544.352 412.934 541.441 410.73C541.516 409.73 541.586 408.723 541.66 407.723C544.559 406.566 547.461 405.406 552.523 403.387C545.113 393.391 538.543 384.418 530.73 373.527C524.008 378.727 515.984 384.508 508.16 391.113C505.863 393.059 504.215 397.16 502.531 400.555C494.434 416.898 484.996 420.734 473.305 412.59C472.633 412.121 471.43 411.441 471.477 410.918C472.234 402.27 472.477 393.332 474.461 385.102C475.328 381.516 479.613 378.613 482.621 376.824C484.555 375.676 487.066 377.805 489.258 377.242C492.199 376.488 496.621 375.699 497.645 372.887C499.871 366.785 500.371 359.41 495.352 355.34C494.387 354.562 493.73 352.984 492.812 351.586C493.566 350.305 494.098 348.758 494.523 348.762C508.27 348.891 515.891 329.016 527.086 322.023C528.578 321.098 528.867 315.492 530.105 312.453C531.375 309.336 533.125 306.691 534.648 303.844C536.027 306.328 538.605 308.738 538.609 311.316C538.609 319.852 541.797 320.414 545.715 319.684C549.992 318.879 554.578 318.914 558.371 316.27C561.414 314.145 563.469 308.543 565.914 304.488C565.477 303.66 565.043 302.832 564.605 302.008C566.406 301.348 568.199 300.691 569.656 300.16C569.844 296.527 570.012 293.191 570.227 288.82C564.734 285.312 564.07 279.312 568.223 262.711C565.004 266.602 561.762 269.633 559.184 273.848C557.773 276.152 556.715 280.57 556.895 283.812C557.371 291.949 553.809 306.984 549.371 307.223C545.562 307.434 541.734 301.961 537.977 299.023C538.238 297.973 538.504 296.922 538.766 295.871C536.57 296.754 534.215 298.762 532.184 298.25C529.227 297.5 524.734 295.996 524.172 292.918C523.41 288.758 524.766 280.781 526.871 277.941C536.055 265.574 545.145 253.555 554.414 243.34C571.91 223.855 587.816 237.453 605.262 251.109C605.605 251.383 605.793 252.391 607.062 255.586C601.918 256.871 597.285 258.051 592.633 259.254C592.438 260.23 592.238 261.203 592.039 262.18C595.293 264.168 598.988 268.5 601.785 267.594C605.504 266.387 610.215 262.453 611.238 257.301C612.785 249.555 614.367 249.758 618.953 250.383C626.391 251.402 633.59 248.523 640.828 247.531C646.594 246.742 652.371 246.215 657.102 245.734C657.176 240.855 656.125 233.949 657.473 232.688C659.492 230.797 663.188 232.676 666.223 233.355C668.059 233.77 670.488 236.285 671.793 235.504C677.781 231.906 683.316 227.566 688.781 223.594C689.281 223.227 689.621 222.391 690.188 222.324C704.996 220.52 715.891 208.984 735.832 226.078C736.039 227.02 736.496 228.734 736.727 230.336C736.914 231.605 736.832 232.742 736.871 234.316C737.887 235.031 738.602 235.773 739.145 235.871C744.102 236.773 749.25 238.207 753.938 238.352C763.926 238.688 775.293 246.355 786.746 252.219C794.141 256.066 803.738 261.559 807.375 253.52C808.746 250.414 815.953 254.18 820.965 256.148C832.449 260.656 843.949 264.93 856.258 271.48C872.062 279.824 884.512 280.883 898.762 286.055C908.547 289.59 920.02 296.336 930.844 301.562C933.625 302.902 936.168 303.727 938.969 305.102C945.496 308.316 950.664 313.754 953.383 320.875C950.523 319.684 947.617 318.492 944.695 317.25C941.832 316.039 938.965 314.773 936.637 315.328C939.773 317.805 942.906 320.273 948.793 324.871C942.527 327.836 936.973 330.547 930.707 333.656C942.23 345.258 951.223 357.492 954.203 371.805C944.375 365.707 935.438 361.004 928.676 348.996C923.184 339.301 918.281 329.438 913.445 320.797C915.934 332.234 904.586 318.309 899.793 317.867C904.531 328.66 900.566 328.328 893.652 326.078C881.738 322.188 874.234 325.102 878.145 339.699C895.836 347.977 913.238 360.652 919.66 387.414C921.832 396.801 920.695 404.281 911.59 403.059C913.473 413.105 913.328 422.762 924.285 429.121C926.406 430.352 928.672 435.91 929.555 439.441C929.945 440.957 927.27 443.918 925.621 443.609C922.941 443.098 919.117 441.223 917.301 438.504C910.684 428.656 904.047 419.848 894.305 418.965C892.621 418.816 890.219 415.324 887.203 412.48C886.062 414.652 884.75 417.148 882.355 421.574C889.488 423.16 894.547 424.285 900.445 425.602C899.949 427.746 899.773 429.406 899.211 430.691C897.227 435.199 896.793 439.176 902.051 444.57C906.195 448.812 909.688 454.359 913.113 459.566C914.715 462.012 916.684 465.508 916.586 467.848C916.102 480.461 917.469 495.828 905.984 500.441C897.805 503.734 891.07 513.305 880.449 509.16C879.09 508.625 876.059 511.008 875.852 512.727C875.555 515.242 876.445 519.391 877.934 521.047C885.266 529.176 890.059 538.766 890.504 550.727C890.645 554.383 889.324 558.938 887.406 561.66C884.238 566.156 880.047 569.516 877.457 572.156C871.438 564.551 865.68 557.344 859.109 549.176C853.168 566.746 860.727 575.641 867.473 583.898C872.027 589.516 873.266 595.629 871.875 603.34C871.543 605.188 870.262 606.867 869.023 609.422C867.09 607.672 864.781 606.762 864.004 604.699C857.508 587.656 846.59 572.66 847.254 550.09C847.41 544.164 845.004 538.062 843.652 531.863C833.766 536.867 833.375 536.484 831.93 522.703C830.637 510.844 817.434 499.824 809.547 503.93C808.625 504.41 807.055 504.895 806.988 505.707C805.758 520.047 795.332 523.008 789.781 531.926C785.527 538.742 785.742 550.961 783.652 560.762C782.77 564.941 782.395 570.246 780.305 572.871C776.863 577.184 772.742 576.672 770.805 569.766C766.441 554.281 761.992 538.602 757.09 522.965C755.5 517.887 753.539 512.996 751.395 507.145C742.492 509.156 739.977 496.039 733.91 490.082C730.93 487.152 727.066 485.996 723.547 484.348C722.629 483.914 721.406 485.164 720.469 484.766C703.762 477.562 685.695 476.434 671.762 457.652C670.562 456.039 668.789 455.324 665.82 453.082C666.5 457.668 666.336 460.547 667.266 462.211C671.301 469.465 674.973 477.895 680.145 482.762C683.094 485.531 688.699 482.305 695 481.574C697.613 484.109 702.477 488.832 707.734 493.914C705.012 511.328 699.648 525.422 685.93 531.516C678.508 534.812 671.953 541.898 664.91 547.152C659.246 551.375 654.934 550.832 652.566 540.766C649.172 526.387 643.797 513.695 636.398 502.074C630.066 492.133 625.629 479.734 620.152 468.602C618.816 465.883 616.699 463.938 613.48 462.949C621.242 483.75 628.723 504.766 636.832 525.125C640.621 534.629 645.699 543.129 650.41 551.773C657.438 564.703 662.176 565.969 672.992 559.281C676.145 557.332 679.613 556.398 683.527 556.297C677.922 576.172 675.648 597.641 661.945 611.211C655.453 617.652 650.223 626.84 644.605 635.074C636.453 647.039 636.828 660.598 638.918 675.387C640.516 686.574 643.934 698.562 637.789 710.148C635.938 713.656 633.176 716.129 630.918 719.188C626.949 724.562 622.949 729.871 619.289 735.609C618.629 736.648 618.809 740.238 619.477 741.629C623.52 750.012 620.695 755.066 615.484 759.879C613.379 761.82 610.812 764.953 610.219 768.129C606.594 787.305 597.445 799.836 588.535 811.863C586.066 815.191 582.031 816.129 578.672 816.742C574.371 817.523 569.934 817.566 565.699 816.504C563.715 816.004 561.246 812.824 560.383 809.812C557.988 801.426 556.262 792.5 554.234 783.766C549.305 762.527 543.535 741.52 539.137 719.867C537.746 713.035 538.922 702.949 541.621 697.027C547.242 684.695 542.973 673.266 541.328 662.109C540.176 654.215 535.953 646.871 532.336 640.098C528.559 633.004 526.145 626.848 529.055 617.512C531.797 608.715 529.117 602.012 522.789 597.215C514.02 590.562 505.492 588.945 495.738 592.199C487.578 594.922 478.879 595.402 470.414 595.219C457.02 594.914 449.426 582.02 443.371 566.93C441.176 561.453 438.188 556.574 436.336 550.938C435.125 547.262 434.766 542.684 434.926 538.555C435.301 528.996 436.688 519.453 436.977 509.898C437.395 496.039 441.711 485.484 448.605 475.199C458.254 460.816 467.07 445.113 475.484 429.164C478.98 422.535 482.09 422.352 486.848 422.816C491.301 423.254 496.027 420.855 500.586 419.426C505.074 418.016 509.488 415.43 513.957 414.863C520.574 414.027 527.23 414.527 535.055 414.477Z" fill="black"/>
        <path id="Vector_6" d="M375.137 770.32C380.07 783.199 379.277 784.027 372.742 790.203C370.367 792.449 371.488 800.434 371.457 805.984C371.445 807.875 372.77 810.844 372.691 812.629C372.473 817.891 374.023 822.406 378.418 828.355C383.023 834.742 386.984 854.75 384.996 857.68C383.215 860.184 376.809 855.137 371.883 848.078C366.586 840.453 360.988 833.258 355.586 825.793C354.328 824.059 352.375 820.855 352.473 820.016C353.527 810.836 345.582 802.75 340.621 794.91C335.098 786.043 329.492 777.906 329.031 768.594C328.938 766.59 327.918 763.621 326.754 761.324C315.91 740.07 312.02 719.367 307.387 698.41C304.246 684.266 296.914 672.922 286.66 665.934C277.352 659.562 271.598 649.234 265.492 639.344C261.938 633.617 259.363 626.602 255.285 622.09C245.211 610.992 244.797 598.152 243.969 585.445C243.758 582.297 246.551 579.555 247.547 576.32C249.832 568.891 252.582 561.5 254.215 553.547C255.66 546.516 252.801 542.273 246.605 541.41C236.496 539.988 227.695 535.301 222.66 522.793C221.227 519.195 217.793 516.707 215.012 514.25C210.789 510.512 206.387 507.176 202.027 503.891C200.555 502.785 198.734 501.195 197.234 501.52C183.008 504.504 173.34 494.543 163.664 486.227C162.512 485.23 160.957 482.91 161.34 481.848C165.512 470.16 158.566 464.176 156.324 456.012C154.117 447.863 153.281 439.129 152.27 430.75C151.57 431 150.867 431.254 150.168 431.504C150.414 443.191 151.223 454.969 152.551 466.844C151.586 467.535 150.621 468.227 149.656 468.91C147.691 465.562 144.711 462.719 144.113 458.844C142.566 448.789 142.473 438.348 142.395 428.172C142.375 425.871 142.875 423.164 142.23 421.387C136.027 403.863 139.438 394.883 157.875 373.855C162.887 368.188 167.73 362.203 172.879 356.465C174.379 354.797 176.344 353.477 178.086 352.375C180.332 350.953 182.57 349.914 184.809 348.707C185.039 345.758 186.648 341.133 185.414 340.176C180.559 336.445 185.633 328.641 190.219 321.383C195.738 312.641 197.125 306.43 192.594 305.676C186.973 304.727 180.074 305.602 172.848 307.395C158.891 310.926 141.293 324.055 124.711 333.777C121.238 335.82 118.141 336.43 114.867 337.707C115.289 336.652 115.719 335.59 116.156 334.535C122.082 330.797 128 327.02 133.309 323.605C133.965 321.855 134.273 319.277 135.648 317.949C143.996 309.82 152.961 297.473 161.242 297.832C164.766 288.824 170.453 284.621 183.016 280.945C187.438 274.418 191.566 271.48 196.727 269.332C203.84 266.383 211.789 262.062 219.586 257.77C233.582 250 240.559 252.629 250.496 251.676C256.215 251.098 262.496 250.141 269.539 247.07C283.176 241.121 293.551 239.977 302.402 243.812C306.281 245.496 309.871 248.418 317.922 243.738C325.145 239.512 331.383 240.367 337.848 239.652C342.301 239.156 345.863 238.109 350.488 229.023C354.656 220.949 358.828 219.836 360.027 225.297C360.91 229.34 360.211 237.457 368.512 227.605C370.66 225.051 373.977 225.867 377.77 224.891C371.812 235.348 366.285 243.445 360.586 243.879C351.785 244.578 342.488 253.234 333.113 260.418C326.293 265.66 319.359 271.723 312.555 278.133C306.953 283.414 306.07 286.949 310.266 289.609C316.566 293.547 328.734 291.938 317.723 315.859C318.723 315.367 319.723 314.875 320.727 314.383C322.34 311.582 323.719 308.133 325.637 306.09C331.348 300.008 337.773 295.266 342.879 288.426C347.793 281.824 351.211 272.941 355.965 265.715C358.148 262.379 361.941 259.605 364.699 258.418C374.848 254.059 376.055 256.656 373.266 274.594C376.523 272.363 379.449 270.961 382.102 268.395C386.648 263.996 388.258 265.238 387.98 271.039C387.762 275.758 387.098 280.73 387.082 285.398C387.07 287.727 387.449 290.398 388.504 291.531C393.234 296.621 392.926 301.297 385.613 306.469C376.344 313.023 366.723 317.324 355.863 323.297C355.145 325.355 351.777 331.406 352.301 334.664C352.781 337.652 357.426 337.625 360.285 341.707C353.371 346.289 346.422 350.852 339.445 355.398C339.148 354.41 338.859 353.426 338.57 352.441C339.859 350.277 341.148 348.113 342.613 345.664C341.906 345.727 341.145 345.434 340.586 345.906C333.551 351.879 326.539 357.992 319.461 363.871C317.496 365.5 315.402 366.723 313.348 367.934C304.105 373.367 297.148 382.422 290.559 393.207C285.75 401.094 279.219 408.078 272.805 413.457C265.875 419.293 261.453 425.18 261.684 434.941C261.707 435.926 261.734 437.098 261.371 438C259.559 442.492 257.652 446.914 255.832 451.344C254.117 447.371 251.391 443.832 251.062 439.418C250.426 430.934 242.445 425.781 235.504 430.094C232.18 432.148 227.887 434.535 225.156 433.688C216.41 430.996 208.27 436.938 203.301 445.449C197.316 455.785 191.293 467.684 195.754 479.898C198.383 487.023 207.605 487.477 212.809 480.555C213.934 479.062 214.41 476.07 215.594 475.477C219.469 473.527 223.531 472.363 227.52 470.883C227.391 474.738 228.012 478.805 227.082 482.418C225.855 487.207 223.434 491.637 221.219 497.141C223.699 497.523 225.641 498.062 227.617 498.102C238.945 498.297 239.062 498.691 237.039 513.246C235.215 527.195 237.699 530.059 249.004 531.324C255.875 532.074 261.098 533.07 265.605 523.344C267.73 518.809 276.184 515.793 280.812 517.207C293.312 521.035 305.422 527.488 317.605 533.66C320.383 535.066 322.379 539.176 325 541.562C328 544.293 331.141 547.852 334.477 548.691C346.918 551.801 349.902 555.008 352.938 571.402C355.098 582.758 363.43 580.715 368.395 586.008C370.844 588.617 373.625 590.641 376.316 592.789C377.582 593.801 379.168 595.414 380.277 595.133C389.121 592.883 396.281 599.176 403.469 606.035C415.117 617.098 417.219 622.086 410.961 638.191C404.785 654.195 404.805 671.293 405.961 689.426C406.867 703.117 404.324 706.344 395.914 709.789C390.453 712.035 385.234 714.438 386.172 727.262C387.129 740.238 384.438 752.168 382.68 763.43C382.078 767.258 377.859 768.016 375.137 770.32Z" fill="black"/>
        <path id="Vector_7" d="M508.18 192.785C509.289 196.094 510.148 198.609 510.953 200.93C503.57 216.996 494.293 214.809 485.695 218.879C483.664 219.828 480.98 219.477 479.707 221.547C473.758 231.188 466.809 230.73 460.449 236.07C456.184 239.633 451.598 244.723 448.242 250.531C442.535 260.441 438.621 263.191 433.238 258.543C425.199 251.66 428.578 231.051 438.953 220.246C445.043 213.906 447.848 208.914 443.387 203.148C442.703 202.266 442.727 199.758 442.984 197.773C444.047 189.531 441.699 188.094 436.949 189.703C434.023 190.691 431.227 190.266 428.918 189.266C427.926 188.836 427.656 184.289 428.246 183.348C429.844 180.785 432.973 177.062 433.84 177.48C439.43 180.168 446.582 170.477 452.609 167.988C459.648 165.113 466.566 162.75 473.324 161.055C483.621 158.48 493.781 156.531 503.875 154.969C511.391 153.801 518.902 152.723 526.207 153.047C530.434 153.238 529.934 158.82 526.91 166.098C521.996 177.891 516.668 187.91 508.18 192.785Z" fill="black"/>
        <path id="Vector_8" d="M391.062 230.973C391.336 214.289 377.844 223.578 370.664 220.199C373.859 211.629 378.004 207.039 382.949 206.527C393.23 205.484 401.438 209.051 407.691 217.59C409.879 220.582 409.363 227.969 410.539 235.117C408.855 236.922 406.359 240.07 403.758 242.258C399.086 246.172 393.52 248.148 389.742 253.414C384.52 260.695 382.586 257.582 380.859 255.301C379.059 252.941 378.785 248.363 377.926 244.781C381.977 240.559 386.004 236.328 391.062 230.973Z" fill="black"/>
        <path id="Vector_9" d="M673.934 687.285C673.734 690.84 674.059 694.605 673.227 697.918C668.523 716.594 663.441 735.211 658.391 753.883C658.199 754.598 657.852 755.254 657.539 755.898C653.625 763.871 647.863 767.891 644.078 762.195C641.836 758.812 641.977 746.027 644.363 742.281C648.715 735.484 648.105 729.496 648.582 722.594C648.887 718.348 649.336 712.613 651.23 710.145C657.703 701.703 668.367 701.477 670.238 683.211C671.473 684.57 672.703 685.93 673.934 687.285Z" fill="black"/>
        <path id="Vector_10" d="M393.449 179.395C412.98 171.363 431.117 163.457 447.828 161.785C447.598 163.273 447.367 164.762 447.141 166.254C440.348 170.332 433.488 174.266 426.492 178.66C422.414 181.219 418.223 183.93 414.035 187.535C403.445 196.691 394.562 194.402 393.449 179.395Z" fill="black"/>
        <path id="Vector_11" d="M297.133 234.719C305.504 223.223 311.688 218.777 316.508 218.039C320.316 217.453 322.492 220.176 325.957 220.629C329.352 221.078 333.355 220.496 337.145 220.344C340.164 220.223 343.223 220.035 345.57 221.754C330.695 238.07 319.656 239.594 308.453 241.09C309.977 237.559 311.207 234.746 312.914 230.922C308.012 232.074 303.371 233.18 297.133 234.719Z" fill="black"/>
        <path id="Vector_12" d="M836.477 587.059C843.137 589.719 849.426 589.797 852.711 593.965C860.996 604.484 867.699 616.633 874.383 628.07C875.195 629.457 875.535 632.047 875.09 633.867C874.266 637.277 873.141 642.086 871.254 643.41C869.531 644.629 865.613 643.059 864.5 640.867C860.906 633.77 858.34 625.441 854.562 618.121C849.652 608.602 844.004 599.59 836.477 587.059Z" fill="black"/>
        <path id="Vector_13" d="M512.152 330.16C508.363 333.684 504.973 337.77 501.207 339.812C499.566 340.699 496.031 338.188 495.477 335.77C494.684 332.344 495.777 327.582 496.184 323.383C496.469 320.469 497.863 316.504 497.16 314.848C495.016 309.773 493.598 304.906 498.172 300.855C503.113 296.469 502.781 302.863 503.75 307.941C504.625 312.551 507.328 315.992 509.082 320.164C510.059 322.488 510.648 325.246 512.152 330.16Z" fill="black"/>
        <path id="Vector_14" d="M273.555 475.898C266.656 480.742 261.363 482.879 255.973 474.301C253.52 470.367 246.734 471.199 241.965 469.742C240.648 469.344 239.484 468.414 238.258 467.734C239.262 465.883 240.02 463.168 241.344 462.316C250.789 456.23 268.246 463.227 273.555 475.898Z" fill="black"/>
        <path id="Vector_15" d="M497.719 232.672C504.555 224.383 510.898 219.574 517.551 222.934C518.879 223.609 520.871 226.086 520.645 227.395C520.086 230.57 518.727 234.793 517.078 236.383C509.848 243.355 503.375 241.922 497.719 232.672Z" fill="black"/>
        <path id="Vector_16" d="M390.496 322.258C381.5 335.105 375.418 334.207 368.113 328.523C373.344 323.461 377.566 317.559 381.562 316.031C384.453 314.918 387.09 319.645 390.496 322.258Z" fill="black"/>
        <path id="Vector_17" d="M269.293 484.066C276.082 477.109 283.055 472.621 290.59 479.926C291.527 480.832 292.77 482.129 292.801 483.406C292.828 484.551 291.355 486.98 290.59 487.02C283.371 487.434 276.156 487.469 268.945 487.621C269.059 486.441 269.172 485.25 269.293 484.066Z" fill="black"/>
        <path id="Vector_18" d="M348.281 221.82C357.289 208.387 369.121 202.965 373.371 211.777C364.367 215.355 357.023 218.297 348.281 221.82Z" fill="black"/>
        <path id="Vector_19" d="M494.453 322.543C489.609 328.113 486.363 331.797 483.109 335.484C482.031 332.934 479.691 328.969 480.137 328.078C482.379 323.543 485.16 319.375 488.137 316.137C488.781 315.438 491.117 319.074 494.453 322.543Z" fill="black"/>
        <path id="Vector_20" d="M785.062 586.332C785.477 580.684 785.852 575.031 786.184 569.387C787.156 569.047 788.129 568.707 789.102 568.367C790.422 572.113 792.617 575.789 792.688 579.617C792.738 582.32 789.918 585.258 788.367 588.102C787.266 587.512 786.164 586.926 785.062 586.332Z" fill="black"/>
      </g>
    </g>
    <g id="Clip path frame_3">
      <path id="Vector_21" d="M869.921 604.203C866.925 608.953 850.714 629.238 842.928 632.832L841.053 633.668C838.339 644.93 829.675 675.992 815.1 687.852C801.483 698.992 784.514 707.496 779.483 709.93C773.096 717 740.315 752.414 712.323 765.473C691.003 775.375 676.428 777.727 669.124 778.207C662.854 790.465 643.37 824.965 614.78 842.172C614.061 852.672 612.385 881.141 614.221 895.035C614.342 895.996 614.581 896.953 614.819 897.91H397.772C397.971 896.953 398.214 895.996 398.331 895.035C400.171 881.141 398.491 852.672 397.772 842.172C369.186 824.965 349.698 790.465 343.432 778.207C336.124 777.727 321.55 775.375 300.229 765.43C272.241 752.414 239.46 717 233.069 709.93C228.042 707.496 211.069 698.992 197.456 687.852C182.882 675.992 174.257 644.93 171.503 633.668L169.628 632.832C161.839 629.238 145.628 608.953 142.635 604.203C135.007 592.223 156.53 558.723 156.768 558.406C161.28 552.973 173.979 550.738 183.8 549.82H184.518C190.589 549.82 194.94 552.934 197.417 556.887C202.327 558.125 206.042 560.879 208.475 563.316C208.835 563.277 209.194 563.277 209.553 563.277C213.745 563.277 217.499 564.594 220.456 567.109C223.249 569.547 224.405 572.938 224.846 576.332C227.561 575.254 229.917 574.613 232.194 574.613C235.346 574.613 238.143 576.012 239.858 578.367C243.53 583.52 246.089 594.617 239.979 602.125C239.061 603.242 237.745 606.238 236.507 609.672C255.35 616.859 276.952 639.461 285.975 649.559C290.647 647.645 297.714 645.527 306.339 645.527C307.018 645.527 307.694 645.527 308.374 645.566C318.237 645.926 325.784 648.641 330.335 650.836C338.999 645.008 360.12 633.031 387.233 633.031C388.151 633.031 389.03 633.031 389.948 633.07C413.905 633.789 437.061 649.48 444.968 655.391L456.749 653.434C457.905 649.32 458.464 645.887 458.342 643.492C458.143 639.258 451.596 631.91 448.76 628.758C446.604 626.363 445.288 624.883 444.53 623.168C442.971 619.773 443.21 615.742 443.651 613.105C440.417 599.172 441.655 597.336 443.05 595.18C444.53 593.023 446.526 592.023 450.159 590.188C452.276 589.109 457.225 586.633 458.342 585.277C458.784 584.637 459.663 583.039 460.499 581.484C464.175 574.496 469.245 564.914 477.628 561.879C483.26 559.801 493.12 558.406 501.507 558.406C508.772 558.406 514.124 559.402 517.878 561.438C518.995 562.078 520.311 562.359 521.87 562.359C525.061 562.359 528.776 560.961 531.569 558.684L540.635 551.34L543.671 562.598C544.389 565.312 544.428 568.148 543.788 570.82C546.026 572.102 548.702 572.82 551.456 572.82C553.811 572.82 556.046 572.262 557.925 571.262L571.62 564.035L568.944 579.285C567.987 584.758 565.389 589.867 561.596 593.859C563.194 595.258 565.112 596.297 567.186 596.773L584.874 601.008L569.425 610.629C568.225 611.348 566.987 611.988 565.71 612.547L565.671 613.266C565.55 618.258 562.757 622.848 558.682 625.484C559.163 626.203 559.96 626.961 561.237 628.117L564.753 631.191L563.553 635.707C562.436 639.977 560.28 643.094 558.362 645.848C556.725 648.281 555.171 650.477 554.171 653.594L567.507 655.469C575.292 649.602 598.569 633.789 622.608 633.07C623.526 633.031 624.405 633.031 625.323 633.031C652.432 633.031 673.553 645.008 682.218 650.836C686.811 648.641 694.315 645.926 704.178 645.566C704.897 645.527 705.538 645.527 706.218 645.527C714.839 645.527 721.948 647.645 726.581 649.559C735.604 639.461 757.206 616.859 776.05 609.672C774.811 606.238 773.495 603.242 772.577 602.125C766.468 594.617 769.022 583.52 772.694 578.367C774.413 576.012 777.206 574.613 780.362 574.613C782.639 574.613 784.991 575.254 787.71 576.332C788.147 572.938 789.307 569.547 792.139 567.109C795.053 564.594 798.807 563.277 803.003 563.277C803.358 563.277 803.721 563.277 804.081 563.316C806.514 560.879 810.229 558.125 815.139 556.887C817.612 552.934 822.007 549.82 828.077 549.82H828.753C838.577 550.738 851.272 552.973 855.784 558.406C856.065 558.723 877.546 592.223 869.921 604.203Z" fill="#FDFEF8"/>
      <path id="Vector_22" d="M347.736 770.668C347.736 770.668 369.911 819.051 404.583 837.594C404.583 837.594 407.275 871.227 405.896 890.879H605.755C604.376 871.227 607.068 837.594 607.068 837.594C641.74 819.051 663.916 770.668 663.916 770.668C663.916 770.668 679.236 772.281 708.666 758.574C738.099 744.867 774.385 703.742 774.385 703.742C774.385 703.742 794.54 694.469 809.86 681.973C825.184 669.473 834.052 628.348 834.052 628.348L839.294 625.93C844.536 623.512 859.58 605.625 863.08 600.129C866.58 594.629 853.001 567.469 849.516 563.273C846.029 559.078 827.602 557.391 827.602 557.391C821.149 557.391 819.943 563.844 819.943 563.844C811.474 563.844 806.638 571.504 806.638 571.504C806.638 571.504 800.658 569.395 796.607 572.867C793.185 575.801 795.349 586.016 794.541 587.227C793.736 588.434 780.431 579.969 778.416 582.789C776.4 585.613 774.384 592.871 778.013 597.305C781.641 601.738 785.266 615.043 785.266 615.043C763.497 616.656 728.016 658.988 728.016 658.988C728.016 658.988 718.396 652.602 704.029 653.145C689.877 653.68 681.252 659.797 681.252 659.797C681.252 659.797 656.455 639.637 622.388 640.645C595.764 641.434 569.169 663.426 569.169 663.426L544.963 660.039C545.783 644.859 553.692 641.738 555.766 633.785C550.274 628.922 549.592 625.906 550.396 620.328C554.154 620.262 557.545 616.879 557.619 613.117C554.209 613.594 550.716 610.66 550.602 607.215C555.548 607.898 560.721 606.801 564.963 604.164C558.803 602.695 553.431 598.234 550.857 592.445C556.138 589.426 559.971 583.977 561.021 577.98C552.29 582.594 540.516 580.391 534.044 572.941C535.954 570.672 536.669 567.445 535.899 564.586C529.825 569.516 520.626 571.863 513.766 568.102C506.735 564.246 487.24 566.289 479.755 569.008C472.275 571.73 467.06 585.332 464.118 589.641C461.173 593.949 449.829 598.027 448.923 599.391C448.016 600.75 450.962 612.992 450.962 612.992C450.962 612.992 449.829 617.527 450.962 620.02C452.095 622.516 465.021 633.625 465.474 643.148C465.721 648.32 463.891 655.055 462.169 660.145L442.482 663.426C442.482 663.426 415.887 641.434 389.263 640.645C355.196 639.637 330.4 659.797 330.4 659.797C330.4 659.797 321.775 653.68 307.622 653.145C293.255 652.602 283.634 658.988 283.634 658.988C283.634 658.988 248.153 616.656 226.38 615.043C226.38 615.043 230.013 601.738 233.641 597.305C237.266 592.871 235.252 585.613 233.236 582.789C231.221 579.969 217.916 588.434 217.111 587.227C216.303 586.016 218.47 575.801 215.044 572.867C210.993 569.395 205.016 571.504 205.016 571.504C205.016 571.504 200.177 563.844 191.708 563.844C191.708 563.844 190.502 557.391 184.049 557.391C184.049 557.391 165.622 559.078 162.137 563.273C158.649 567.469 145.072 594.629 148.572 600.129C152.072 605.625 167.115 623.512 172.357 625.93L177.598 628.348C177.598 628.348 186.47 669.473 201.79 681.973C217.11 694.469 237.266 703.742 237.266 703.742C237.266 703.742 273.556 744.867 302.986 758.574C332.415 772.281 347.736 770.668 347.736 770.668Z" fill="black"/>
      <path id="Vector_23" d="M506.108 809.232V804.86C506.108 801.109 500.296 799.026 496.372 801.361L470.053 817.021C467.881 818.314 464.804 818.323 462.618 817.047L460.403 815.755C456.466 813.458 450.71 815.548 450.71 819.278V819.284C450.71 820.273 451.147 821.23 451.954 822.012L461.588 831.351C462.723 832.452 464.48 833.096 466.342 833.096H478.11C481.423 833.096 484.108 835.099 484.108 837.57V851.343C484.108 852.937 482.969 854.41 481.118 855.213L475.21 857.766C471.672 859.292 467.168 857.793 466.335 854.81C465.016 850.108 456.098 850.068 454.6 854.737C450.726 866.811 452.239 877.072 453.492 882.124C453.992 884.141 452.592 886.137 450.088 886.989L445.38 888.597C444.594 888.863 443.745 889 442.883 889H436.458C432.236 889 429.336 885.831 430.874 882.897L431.884 880.98C432.295 880.198 432.389 879.363 432.189 878.537C429.657 867.961 428.671 844.881 428.398 836.864C428.339 835.133 426.918 833.639 424.816 832.913C394.948 822.56 382.207 802.181 377.304 791.14C375.872 787.907 379.719 784.726 384.195 785.402C389.427 786.194 394.565 786.748 397.808 787.06C399.84 787.255 401.589 788.213 402.434 789.605C405.615 794.864 411.132 799.957 414.811 803.03C416.866 804.747 420.317 804.965 422.825 803.623C476.712 774.759 524.839 781.463 544.874 786.357C549.394 787.46 550.462 791.855 546.765 794.088L515.875 812.711C511.954 815.075 506.108 812.994 506.108 809.232Z" fill="white"/>
      <path id="Vector_24" d="M496 837.092V851.605C496 855.126 501.121 857.212 504.91 855.236L510.661 852.235C512.137 851.465 513.062 850.208 513.156 848.839L513.992 836.617C514.182 833.864 511.057 831.662 507.504 832.043L500.918 832.748C498.098 833.05 496 834.903 496 837.092Z" fill="white"/>
      <path id="Vector_25" d="M507.544 893L495.446 897.91H462.981L497.286 880.309C499.282 879.285 501.728 880.137 502.653 882.184L507.544 893Z" fill="white"/>
      <path id="Vector_26" d="M192.556 607.73C189.978 605.707 188.489 602.598 188.45 599.324C188.356 591.43 188.376 579.984 189.282 579.004C190.669 577.5 194.606 577.035 195.997 585.258C197.384 593.477 200.86 610.383 197.966 611.539C196.04 612.309 194.681 609.398 192.556 607.73Z" fill="#FDFEF8"/>
      <path id="Vector_27" d="M170.642 594.898C170.642 594.898 172.606 580.047 174.345 578.773C176.083 577.5 177.704 579.352 177.356 587.223C177.009 595.098 176.544 604.477 174.345 604.594C172.145 604.707 170.524 600.832 170.642 594.898Z" fill="#FDFEF8"/>
      <path id="Vector_28" d="M159.392 588.551C159.392 588.551 163.669 575.668 165.435 574.828C167.196 573.992 168.325 575.918 166.673 582.863C165.024 589.812 163.017 598.082 161.04 597.809C159.063 597.539 158.278 593.816 159.392 588.551Z" fill="#FDFEF8"/>
      <path id="Vector_29" d="M222.716 685.242C213.798 682.797 207.247 676.387 204.759 668.426C200.536 654.902 191.876 627.02 191.825 625.469C191.759 623.422 196.599 617.891 202.481 631.207C208.36 644.523 229.642 680.988 229.454 684.777C229.38 686.297 226.462 686.27 222.716 685.242Z" fill="#FDFEF8"/>
      <path id="Vector_30" d="M339.649 699.879C343.661 699.191 345.091 694.125 342.169 691.289C333.716 683.074 318.466 668.875 311.438 666.191C301.435 662.371 285.599 670.082 290.185 679.875C294.196 688.445 319.106 703.395 339.649 699.879Z" fill="#FDFEF8"/>
      <path id="Vector_31" d="M346.013 665.574C343.204 667.824 343.274 672.145 346.067 674.414C353.415 680.398 367.255 691.223 374.325 693.898C384.235 697.648 423.2 678.953 421.849 673.547C420.497 668.145 402.263 658.473 381.548 656.719C367.743 655.547 354.661 658.652 346.013 665.574Z" fill="#FDFEF8"/>
      <path id="Vector_32" d="M814.11 607.73C816.688 605.707 818.177 602.598 818.216 599.324C818.313 591.43 818.29 579.984 817.384 579.004C815.997 577.5 812.06 577.035 810.669 585.258C809.282 593.477 805.81 610.383 808.7 611.539C810.626 612.309 811.985 609.398 814.11 607.73Z" fill="#FDFEF8"/>
      <path id="Vector_33" d="M836.028 594.898C836.028 594.898 834.06 580.047 832.321 578.773C830.583 577.5 828.962 579.352 829.313 587.223C829.657 595.098 830.122 604.477 832.321 604.594C834.521 604.707 836.142 600.832 836.028 594.898Z" fill="#FDFEF8"/>
      <path id="Vector_34" d="M847.274 588.551C847.274 588.551 842.997 575.668 841.231 574.828C839.47 573.992 838.341 575.918 839.993 582.863C841.642 589.812 843.649 598.082 845.626 597.809C847.606 597.539 848.388 593.816 847.274 588.551Z" fill="#FDFEF8"/>
      <path id="Vector_35" d="M783.95 685.242C792.868 682.797 799.419 676.387 801.907 668.426C806.13 654.902 814.79 627.02 814.841 625.469C814.911 623.422 810.067 617.891 804.185 631.207C798.306 644.523 777.024 680.988 777.212 684.777C777.286 686.297 780.204 686.27 783.95 685.242Z" fill="#FDFEF8"/>
      <path id="Vector_36" d="M667.017 699.879C663.005 699.191 661.575 694.125 664.497 691.289C672.95 683.074 688.204 668.875 695.228 666.191C705.231 662.371 721.067 670.082 716.481 679.875C712.47 688.445 687.56 703.395 667.017 699.879Z" fill="#FDFEF8"/>
      <path id="Vector_37" d="M660.653 665.574C663.462 667.824 663.392 672.145 660.599 674.414C653.251 680.398 639.415 691.223 632.341 693.898C622.431 697.648 583.466 678.953 584.817 673.547C586.169 668.145 604.407 658.473 625.118 656.719C638.923 655.547 652.005 658.652 660.653 665.574Z" fill="#FDFEF8"/>
      <path id="Vector_38" d="M475.021 680.555C475.021 680.555 469.657 639.789 472.017 634.637C474.38 629.488 483.392 625.625 485.321 618.547C487.251 611.465 487.895 601.383 493.259 601.809C498.626 602.238 497.044 628.414 499.978 633.566C502.915 638.715 505.294 638.059 505.286 641.176C505.274 644.293 487.251 647.727 487.466 654.379C487.681 661.031 496.962 675.77 496.478 680.77C495.837 687.422 479.313 701.797 475.021 680.555Z" fill="#FDFEF8"/>
      <path id="Vector_39" d="M496.5 719.5L496 715.5L494.5 711.5L492 708.5L489.5 706.5L484.5 704L475.364 700.105C461.263 693.969 445.274 692.816 430.341 696.859L384.071 709.391C384.071 709.391 405.696 760.137 424.618 771.133C443.536 782.129 466.063 777.898 472.368 776.207C478.677 774.516 488 765 488 765C488 765 496.696 755.596 496.696 740.5C496.696 737.5 496.696 733.5 496.696 733.5V726.5L496.5 719.5Z" fill="#FDFEF8"/>
      <path id="Vector_40" d="M507.196 719.013L507.696 715.013L509.196 711.013L511.696 708.013L514.196 706.013L519.196 703.513L528.332 699.618C542.433 693.482 558.422 692.329 573.355 696.372L619.625 708.904C619.625 708.904 598 759.65 579.078 770.646C560.16 781.642 537.633 777.411 531.328 775.72C525.019 774.029 515.696 764.513 515.696 764.513C515.696 764.513 507 755.109 507 740.013C507 737.013 507 733.013 507 733.013V726.013L507.196 719.013Z" fill="#FDFEF8"/>
    </g>
  </g>
  <defs>
    <clipPath id="clip0_1_19">
      <rect width="1024" height="1024" fill="white" transform="translate(0.333252)"/>
    </clipPath>
    <clipPath id="clip1_1_19">
      <rect width="1024" height="1024" fill="white" transform="translate(0.333252)"/>
    </clipPath>
    <clipPath id="clip2_1_19">
      <rect width="677" height="677" fill="white" transform="translate(174 126)"/>
    </clipPath>
  </defs>
<title>Title</title></svg>
