<?xml version="1.0" encoding="UTF-8"?>
<svg version="1.1" xmlns="http://www.w3.org/2000/svg" width="1024" height="1024">
<path d="M0 0 C337.92 0 675.84 0 1024 0 C1024 337.92 1024 675.84 1024 1024 C686.08 1024 348.16 1024 0 1024 C0 686.08 0 348.16 0 0 Z " fill="#191919" transform="translate(0,0)"/>
<path d="M0 0 C0.82874634 0.00126892 1.65749268 0.00253784 2.51135254 0.00384521 C66.04801743 0.18969679 121.67179488 26.78524806 166.75 70.6875 C199.69908214 104.16897306 220.34984775 149.2450604 228.0625 195.1875 C228.25730957 196.29472412 228.25730957 196.29472412 228.45605469 197.42431641 C237.85416868 253.06273078 222.13501745 314.03040231 190.13867188 359.97949219 C188.15947392 362.75251065 186.12276766 365.47389243 184.0625 368.1875 C183.39734375 369.06535156 182.7321875 369.94320313 182.046875 370.84765625 C176.75966198 377.62861441 170.98576974 383.96238386 165.0625 390.1875 C164.25353271 391.03948975 164.25353271 391.03948975 163.42822266 391.90869141 C135.74436938 420.85635538 96.74825967 445.2114388 57.1875 453.25 C55.61702502 453.58126187 54.04671298 453.91329717 52.4765625 454.24609375 C51.72149414 454.4044873 50.96642578 454.56288086 50.18847656 454.72607422 C47.29592647 455.3538785 44.4325454 456.0895392 41.5625 456.8125 C-11.60942385 468.81060366 -72.83235659 456.14134773 -118.76953125 427.859375 C-135.1420402 417.49928185 -149.8843952 405.48564517 -163.9375 392.1875 C-164.618125 391.54941406 -165.29875 390.91132812 -166 390.25390625 C-171.12667179 385.30524389 -175.51269954 379.76027825 -179.9375 374.1875 C-181.13052734 372.71990234 -181.13052734 372.71990234 -182.34765625 371.22265625 C-189.39101101 362.37102341 -195.27638513 352.97119851 -200.9375 343.1875 C-201.33324219 342.51267578 -201.72898437 341.83785156 -202.13671875 341.14257812 C-214.36131068 320.09375005 -222.76119625 296.01348167 -227.1875 272.125 C-227.31890381 271.41738525 -227.45030762 270.70977051 -227.58569336 269.98071289 C-229.96140443 256.72790006 -230.48500248 243.63256299 -230.4375 230.1875 C-230.43576782 229.27104706 -230.43403564 228.35459412 -230.43225098 227.41036987 C-230.34784097 210.15994683 -228.9528715 193.52298106 -224.75 176.75 C-224.44175293 175.50355713 -224.13350586 174.25711426 -223.81591797 172.97290039 C-221.21217667 162.73200332 -218.03868959 152.9202363 -213.9375 143.1875 C-213.59992676 142.37522949 -213.26235352 141.56295898 -212.91455078 140.72607422 C-197.26735082 103.43775835 -170.64420121 67.16010094 -136.9375 44.1875 C-136.28958496 43.73294434 -135.64166992 43.27838867 -134.97412109 42.81005859 C-102.8696698 20.29476814 -67.08468969 5.40816576 -27.9375 1.1875 C-26.85529175 1.0471936 -26.85529175 1.0471936 -25.7512207 0.90405273 C-17.20110182 -0.12312816 -8.59811137 -0.01345524 0 0 Z " fill="#36FE00" transform="translate(511.9375,145.8125)"/>
<path d="M0 0 C0.33 0 0.66 0 1 0 C1.02187378 1.96114746 1.02187378 1.96114746 1.04418945 3.96191406 C1.45667872 40.08346538 1.45667872 40.08346538 5 76 C5.12665039 76.90459961 5.25330078 77.80919922 5.38378906 78.74121094 C5.86926681 82.19025781 6.36180966 85.63797705 6.87670898 89.08276367 C8.07338098 97.1604933 8.9364659 105.26645646 9.79589844 113.38598633 C10.46554674 119.58111193 11.22094665 125.75486083 12.11328125 131.921875 C12.20761948 132.57820923 12.3019577 133.23454346 12.39915466 133.9107666 C12.85828505 137.09123563 13.32981814 140.2691781 13.81811523 143.4453125 C15.85629082 157.33885983 15.85629082 157.33885983 11.8828125 163.03515625 C10.97641828 164.0558524 10.05635572 165.06452824 9.125 166.0625 C8.12570797 167.19233615 7.12837483 168.32390729 6.1328125 169.45703125 C5.61750977 170.03662598 5.10220703 170.6162207 4.57128906 171.21337891 C1.97362431 174.16703189 -0.52824616 177.19067065 -3 180.25 C-3.45616699 180.79148682 -3.91233398 181.33297363 -4.38232422 181.89086914 C-10.90779098 190.01413538 -12.23589782 200.71817781 -14.5625 210.625 C-15.16662055 213.18000665 -15.77204796 215.73470472 -16.37890625 218.2890625 C-16.6426001 219.41006348 -16.90629395 220.53106445 -17.17797852 221.68603516 C-19.87668045 232.56580351 -19.87668045 232.56580351 -24.4375 236.375 C-25.33855469 237.13941406 -26.23960937 237.90382813 -27.16796875 238.69140625 C-28.56982422 239.83416016 -28.56982422 239.83416016 -30 241 C-30.86238281 241.71027344 -31.72476562 242.42054688 -32.61328125 243.15234375 C-34.40957996 244.6239781 -36.21056503 246.08990644 -38.015625 247.55078125 C-41.38761363 250.318107 -44.69665446 253.1514694 -48 256 C-52.98925694 260.2998985 -58.04221734 264.50485878 -63.15625 268.65625 C-67.08945108 271.89789924 -70.95582457 275.21544652 -74.79541016 278.56738281 C-77.48725589 280.90599322 -80.15876585 283.11450631 -83.0546875 285.203125 C-90.72662002 290.77112034 -94.06838319 297.03539304 -97.82470703 305.44433594 C-100.17473641 310.55445382 -102.77314849 315.54461757 -105.3125 320.5625 C-109.99821881 329.90343605 -114.58259866 339.28742735 -119.04614258 348.73657227 C-122.90833284 356.89333929 -126.95962299 364.91924599 -131 373 C-178.85 373 -226.7 373 -276 373 C-299.70381773 324.40717365 -299.70381773 324.40717365 -305.91113281 311.29833984 C-307.0072027 308.98479681 -308.10906178 306.67406358 -309.2109375 304.36328125 C-309.87025795 302.97157497 -310.52914463 301.57966308 -311.1875 300.1875 C-312.01314453 298.44533203 -312.01314453 298.44533203 -312.85546875 296.66796875 C-314 294 -314 294 -314 292 C-314.59224365 291.72615479 -315.1844873 291.45230957 -315.79467773 291.17016602 C-317.92117965 290.04182286 -319.49105363 288.86920306 -321.28515625 287.27734375 C-321.89238525 286.74359131 -322.49961426 286.20983887 -323.12524414 285.65991211 C-323.76453857 285.09151611 -324.40383301 284.52312012 -325.0625 283.9375 C-326.41562113 282.74880878 -327.7697935 281.56131318 -329.125 280.375 C-329.78757812 279.79492188 -330.45015625 279.21484375 -331.1328125 278.6171875 C-333.56937304 276.50686101 -336.05722858 274.46557686 -338.5625 272.4375 C-342.77198715 269.02862853 -346.89757094 265.53596636 -351 262 C-356.00539146 257.6872465 -361.06935741 253.46156243 -366.19921875 249.296875 C-370.00344275 246.17709298 -373.75343296 242.99509171 -377.49829102 239.80444336 C-379.8032014 237.84373292 -382.0695464 235.95213719 -384.56445312 234.23510742 C-387.55449428 231.49113922 -388.03213553 229.68722979 -388.9140625 225.7578125 C-389.20023437 224.52546875 -389.48640625 223.293125 -389.78125 222.0234375 C-390.0596875 220.73695313 -390.338125 219.45046875 -390.625 218.125 C-390.91117187 216.8771875 -391.19734375 215.629375 -391.4921875 214.34375 C-392.63643488 209.31946378 -393.77434292 204.31316927 -394.6472168 199.23364258 C-396.07417959 191.27793856 -398.04263185 186.32776968 -403.5625 180.4375 C-404.815522 178.98994491 -406.06812264 177.54202498 -407.3203125 176.09375 C-409.07669676 174.12250353 -410.84413886 172.16667072 -412.64746094 170.23828125 C-413.40591309 169.42423828 -413.40591309 169.42423828 -414.1796875 168.59375 C-414.61651855 168.13548828 -415.05334961 167.67722656 -415.50341797 167.20507812 C-419.78328689 161.92992474 -421.55394815 158.61441649 -420.890625 151.75 C-420.82892624 151.05869492 -420.76722748 150.36738983 -420.70365906 149.65513611 C-420.49608066 147.43307015 -420.25220465 145.2174137 -420 143 C-419.92258575 142.28208282 -419.84517151 141.56416565 -419.76541138 140.82449341 C-419.17637987 135.39578577 -418.49947631 129.97953664 -417.8125 124.5625 C-417.59422051 122.81199337 -417.3764609 121.06142184 -417.15917969 119.31079102 C-416.69292391 115.55752641 -416.22433628 111.80456259 -415.75439453 108.05175781 C-414.53242188 98.2731679 -413.34373612 88.49047379 -412.14950562 78.70846558 C-411.5123451 73.49169257 -410.87351414 68.27512466 -410.234375 63.05859375 C-410.12415512 62.15817352 -410.01393524 61.2577533 -409.90037537 60.33004761 C-409.7962886 59.48048492 -409.69220184 58.63092224 -409.58496094 57.75561523 C-409.48654404 56.94361664 -409.38812714 56.13161804 -409.28672791 55.29501343 C-409.10622812 53.8502659 -408.91614922 52.4066513 -408.7124176 50.96499634 C-407.95493974 45.50897938 -407.7834486 40.09753033 -407.68359375 34.59375 C-407.66281265 33.6284436 -407.64203156 32.66313721 -407.62062073 31.6685791 C-407.55571038 28.61245213 -407.49651484 25.55624592 -407.4375 22.5 C-407.39425901 20.41665877 -407.35064302 18.33332529 -407.30664062 16.25 C-407.20008975 11.166746 -407.09866085 6.08341301 -407 1 C-403.36266695 4.55986297 -400.3492942 8.17378127 -397.5 12.375 C-388.07632516 25.86196278 -376.76454767 37.55293637 -365 49 C-366.62366466 52.24732932 -369.75387839 52.70155136 -373 54 C-370.24505164 68.93141498 -367.23151157 83.79047484 -364 98.625 C-363.74234863 99.80837448 -363.74234863 99.80837448 -363.47949219 101.01565552 C-362.79812159 104.14433832 -362.11646456 107.2729585 -361.43432617 110.401474 C-359.93057215 117.30396749 -358.45209743 124.21142666 -357 131.125 C-356.79246094 132.10162598 -356.58492188 133.07825195 -356.37109375 134.08447266 C-356.18675781 134.9666748 -356.00242187 135.84887695 -355.8125 136.7578125 C-355.65394531 137.5120752 -355.49539063 138.26633789 -355.33203125 139.04345703 C-355 141 -355 141 -355 144 C-354.16734619 144.23021851 -354.16734619 144.23021851 -353.31787109 144.46508789 C-346.2297801 146.50139415 -339.368682 149.02087988 -332.50244141 151.70629883 C-330.6109714 152.44296368 -328.71393045 153.16386256 -326.81640625 153.88476562 C-325.61113281 154.35462891 -324.40585937 154.82449219 -323.1640625 155.30859375 C-322.07561035 155.72939209 -320.9871582 156.15019043 -319.86572266 156.58374023 C-314.16463674 159.40125594 -312.07395197 163.38355361 -309.6875 169.07421875 C-309.39190186 169.75748734 -309.09630371 170.44075592 -308.79174805 171.14472961 C-307.85216764 173.3219132 -306.92583848 175.50444237 -306 177.6875 C-305.37849197 179.1351471 -304.75610405 180.58241678 -304.1328125 182.02929688 C-302.94201498 184.79488613 -301.7580184 187.56323993 -300.578125 190.33349609 C-299.2782964 193.35342585 -297.93635645 196.34546567 -296.5625 199.33203125 C-295 203 -295 203 -295 206 C-294.24404541 206.10054687 -293.48809082 206.20109375 -292.70922852 206.3046875 C-287.59644255 207.26310351 -282.65297688 208.70206754 -277.65234375 210.125 C-276.56288956 210.43195801 -275.47343536 210.73891602 -274.35096741 211.05517578 C-270.8789547 212.03377774 -267.40814683 213.01656587 -263.9375 214 C-260.46315877 214.982982 -256.98856061 215.96502315 -253.51332092 216.94482422 C-251.35361729 217.55386406 -249.19444569 218.16479448 -247.03587341 218.77783203 C-246.05457962 219.05481934 -245.07328583 219.33180664 -244.06225586 219.6171875 C-242.77368935 219.98239502 -242.77368935 219.98239502 -241.45909119 220.35498047 C-238.98620969 221.0036172 -236.51137508 221.52434709 -234 222 C-234.11465421 219.77027727 -234.24214766 217.54121247 -234.375 215.3125 C-234.47941406 213.45044922 -234.47941406 213.45044922 -234.5859375 211.55078125 C-235.39441821 204.61767779 -238.31887167 201.18683528 -243 196.3125 C-243.81984375 195.44141602 -243.81984375 195.44141602 -244.65625 194.55273438 C-246.74335133 192.34030466 -248.8492912 190.1507088 -251 188 C-251.59883909 183.68383902 -251.72864326 179.34393277 -251.89892578 174.99316406 C-251.98735791 173.24929952 -252.15694366 171.50993724 -252.33984375 169.7734375 C-252.93344488 161.37970921 -250.95740999 154.06476489 -248.5625 146.0625 C-248.25707275 144.98371582 -247.95164551 143.90493164 -247.63696289 142.79345703 C-244.85473737 134.14558045 -240.75221025 130.16857336 -232.90405273 125.84545898 C-230.94110439 124.8746387 -228.96438774 124.01549667 -226.9375 123.1875 C-226.28201172 122.90197266 -225.62652344 122.61644531 -224.95117188 122.32226562 C-209.43999639 115.74869961 -195.40128497 117.02084549 -180.02392578 123.14892578 C-173.44658853 125.91473973 -166.18275081 129.04274885 -162 135 C-160.39309323 139.26560707 -159.1965228 143.60489853 -158 148 C-157.74484619 148.72815918 -157.48969238 149.45631836 -157.22680664 150.20654297 C-154.87083193 157.12865758 -154.57911404 163.47513447 -154.6875 170.75 C-154.68266602 172.39548828 -154.68266602 172.39548828 -154.67773438 174.07421875 C-154.76124723 186.60114707 -154.76124723 186.60114707 -158.4440918 190.54736328 C-159.63592446 191.67660846 -160.83997098 192.79306462 -162.05419922 193.89819336 C-169.78229566 201.00474528 -172.48954272 206.52132176 -173 217.00463867 C-173.04617086 219.00255903 -173.03011321 221.00177311 -173 223 C-171.9171875 222.57203125 -170.834375 222.1440625 -169.71875 221.703125 C-164.40516666 219.71286177 -158.97044596 218.2417066 -153.5 216.75 C-146.70729263 214.87927977 -139.92276314 212.99225868 -133.16796875 210.98828125 C-132.08 210.66569336 -130.99203125 210.34310547 -129.87109375 210.01074219 C-127.78515794 209.38944045 -125.70046671 208.76394126 -123.6171875 208.13378906 C-122.67488281 207.85374023 -121.73257812 207.57369141 -120.76171875 207.28515625 C-119.93631592 207.03644775 -119.11091309 206.78773926 -118.26049805 206.53149414 C-116 206 -116 206 -112 206 C-111.60566772 204.79972168 -111.60566772 204.79972168 -111.20336914 203.57519531 C-96.86755053 160.98364981 -96.86755053 160.98364981 -85.7734375 154.28515625 C-80.74627024 152.05590439 -75.64963949 150.80912234 -70.27661133 149.71777344 C-63.71740908 148.28091667 -57.64915495 146.73966784 -52 143 C-49.37281064 138.62693461 -48.8162231 134.10626813 -48.1875 129.125 C-47.95648236 127.70458277 -47.71779387 126.28539573 -47.47216797 124.86743164 C-47.07207375 122.542346 -46.67947244 120.21742422 -46.31134033 117.88703918 C-45.22402291 111.01804808 -43.85204267 104.22675914 -42.40234375 97.42578125 C-42.17353012 96.35205261 -41.94471649 95.27832397 -41.70896912 94.17205811 C-41.24539096 92.00310382 -40.78101153 89.83432065 -40.31582642 87.66571045 C-39.20769652 82.48745378 -38.11898888 77.30529717 -37.0390625 72.12109375 C-36.84775253 71.21708328 -36.65644257 70.31307281 -36.45933533 69.38166809 C-35.39486245 64.26418737 -34.57485502 59.19592089 -34 54 C-37.96 52.02 -37.96 52.02 -42 50 C-38.41029141 45.69564805 -34.72296989 41.6610851 -30.69799805 37.76342773 C-20.13139702 27.53066727 -11.46003185 16.32086012 -3.08276367 4.26538086 C-2.07802602 2.8273488 -1.042235 1.41109184 0 0 Z " fill="#EFEFEF" transform="translate(715,506)"/>
<path d="M0 0 C0.33 0 0.66 0 1 0 C1.02187378 1.96114746 1.02187378 1.96114746 1.04418945 3.96191406 C1.45667872 40.08346538 1.45667872 40.08346538 5 76 C5.12665039 76.90459961 5.25330078 77.80919922 5.38378906 78.74121094 C5.86926681 82.19025781 6.36180966 85.63797705 6.87670898 89.08276367 C8.07338098 97.1604933 8.9364659 105.26645646 9.79589844 113.38598633 C10.46554674 119.58111193 11.22094665 125.75486083 12.11328125 131.921875 C12.20761948 132.57820923 12.3019577 133.23454346 12.39915466 133.9107666 C12.85828505 137.09123563 13.32981814 140.2691781 13.81811523 143.4453125 C15.85629082 157.33885983 15.85629082 157.33885983 11.8828125 163.03515625 C10.97641828 164.0558524 10.05635572 165.06452824 9.125 166.0625 C8.12570797 167.19233615 7.12837483 168.32390729 6.1328125 169.45703125 C5.61750977 170.03662598 5.10220703 170.6162207 4.57128906 171.21337891 C1.97362431 174.16703189 -0.52824616 177.19067065 -3 180.25 C-3.45616699 180.79148682 -3.91233398 181.33297363 -4.38232422 181.89086914 C-10.90779098 190.01413538 -12.23589782 200.71817781 -14.5625 210.625 C-15.16662055 213.18000665 -15.77204796 215.73470472 -16.37890625 218.2890625 C-16.6426001 219.41006348 -16.90629395 220.53106445 -17.17797852 221.68603516 C-19.87668045 232.56580351 -19.87668045 232.56580351 -24.4375 236.375 C-25.33855469 237.13941406 -26.23960937 237.90382813 -27.16796875 238.69140625 C-28.56982422 239.83416016 -28.56982422 239.83416016 -30 241 C-30.86238281 241.71027344 -31.72476562 242.42054688 -32.61328125 243.15234375 C-34.40957996 244.6239781 -36.21056503 246.08990644 -38.015625 247.55078125 C-41.38761363 250.318107 -44.69665446 253.1514694 -48 256 C-52.98925694 260.2998985 -58.04221734 264.50485878 -63.15625 268.65625 C-67.08945108 271.89789924 -70.95582457 275.21544652 -74.79541016 278.56738281 C-77.48725589 280.90599322 -80.15876585 283.11450631 -83.0546875 285.203125 C-90.72662002 290.77112034 -94.06838319 297.03539304 -97.82470703 305.44433594 C-100.17473641 310.55445382 -102.77314849 315.54461757 -105.3125 320.5625 C-109.99821881 329.90343605 -114.58259866 339.28742735 -119.04614258 348.73657227 C-122.90833284 356.89333929 -126.95962299 364.91924599 -131 373 C-178.85 373 -226.7 373 -276 373 C-299.70381773 324.40717365 -299.70381773 324.40717365 -305.91113281 311.29833984 C-307.0072027 308.98479681 -308.10906178 306.67406358 -309.2109375 304.36328125 C-309.87025795 302.97157497 -310.52914463 301.57966308 -311.1875 300.1875 C-312.01314453 298.44533203 -312.01314453 298.44533203 -312.85546875 296.66796875 C-314 294 -314 294 -314 292 C-314.59224365 291.72615479 -315.1844873 291.45230957 -315.79467773 291.17016602 C-317.92117965 290.04182286 -319.49105363 288.86920306 -321.28515625 287.27734375 C-321.89238525 286.74359131 -322.49961426 286.20983887 -323.12524414 285.65991211 C-323.76453857 285.09151611 -324.40383301 284.52312012 -325.0625 283.9375 C-326.41562113 282.74880878 -327.7697935 281.56131318 -329.125 280.375 C-329.78757812 279.79492188 -330.45015625 279.21484375 -331.1328125 278.6171875 C-333.56937304 276.50686101 -336.05722858 274.46557686 -338.5625 272.4375 C-342.77198715 269.02862853 -346.89757094 265.53596636 -351 262 C-356.00539146 257.6872465 -361.06935741 253.46156243 -366.19921875 249.296875 C-370.00344275 246.17709298 -373.75343296 242.99509171 -377.49829102 239.80444336 C-379.8032014 237.84373292 -382.0695464 235.95213719 -384.56445312 234.23510742 C-387.55449428 231.49113922 -388.03213553 229.68722979 -388.9140625 225.7578125 C-389.20023437 224.52546875 -389.48640625 223.293125 -389.78125 222.0234375 C-390.0596875 220.73695313 -390.338125 219.45046875 -390.625 218.125 C-390.91117187 216.8771875 -391.19734375 215.629375 -391.4921875 214.34375 C-392.63643488 209.31946378 -393.77434292 204.31316927 -394.6472168 199.23364258 C-396.07417959 191.27793856 -398.04263185 186.32776968 -403.5625 180.4375 C-404.815522 178.98994491 -406.06812264 177.54202498 -407.3203125 176.09375 C-409.07669676 174.12250353 -410.84413886 172.16667072 -412.64746094 170.23828125 C-413.40591309 169.42423828 -413.40591309 169.42423828 -414.1796875 168.59375 C-414.61651855 168.13548828 -415.05334961 167.67722656 -415.50341797 167.20507812 C-419.78328689 161.92992474 -421.55394815 158.61441649 -420.890625 151.75 C-420.82892624 151.05869492 -420.76722748 150.36738983 -420.70365906 149.65513611 C-420.49608066 147.43307015 -420.25220465 145.2174137 -420 143 C-419.92258575 142.28208282 -419.84517151 141.56416565 -419.76541138 140.82449341 C-419.17637987 135.39578577 -418.49947631 129.97953664 -417.8125 124.5625 C-417.59422051 122.81199337 -417.3764609 121.06142184 -417.15917969 119.31079102 C-416.69292391 115.55752641 -416.22433628 111.80456259 -415.75439453 108.05175781 C-414.53242188 98.2731679 -413.34373612 88.49047379 -412.14950562 78.70846558 C-411.5123451 73.49169257 -410.87351414 68.27512466 -410.234375 63.05859375 C-410.12415512 62.15817352 -410.01393524 61.2577533 -409.90037537 60.33004761 C-409.7962886 59.48048492 -409.69220184 58.63092224 -409.58496094 57.75561523 C-409.48654404 56.94361664 -409.38812714 56.13161804 -409.28672791 55.29501343 C-409.10622812 53.8502659 -408.91614922 52.4066513 -408.7124176 50.96499634 C-407.95493974 45.50897938 -407.7834486 40.09753033 -407.68359375 34.59375 C-407.66281265 33.6284436 -407.64203156 32.66313721 -407.62062073 31.6685791 C-407.55571038 28.61245213 -407.49651484 25.55624592 -407.4375 22.5 C-407.39425901 20.41665877 -407.35064302 18.33332529 -407.30664062 16.25 C-407.20008975 11.166746 -407.09866085 6.08341301 -407 1 C-403.36266695 4.55986297 -400.3492942 8.17378127 -397.5 12.375 C-388.07632516 25.86196278 -376.76454767 37.55293637 -365 49 C-366.35050849 51.70101698 -367.74777056 51.87751233 -370.5 53.0625 C-376.4919123 56.04118839 -381.27100948 59.36047029 -385 65 C-385.49617936 67.75908527 -385.49617936 67.75908527 -385.2890625 70.72705078 C-385.25345215 71.87578674 -385.2178418 73.02452271 -385.18115234 74.20806885 C-385.12137207 75.45940613 -385.0615918 76.71074341 -385 78 C-384.93159912 79.9748941 -384.93159912 79.9748941 -384.86181641 81.98968506 C-384.54907528 90.67358729 -384.03854598 99.34672044 -383.48208618 108.01803398 C-383.20338802 112.38172265 -382.95346053 116.74297894 -382.77050781 121.11181641 C-382.82535811 142.62238091 -382.82535811 142.62238091 -373.87956238 161.08311462 C-371.12809696 163.39130924 -368.25795619 165.42135064 -365.25689697 167.39111328 C-361.15775881 170.31328874 -357.80596746 173.99850622 -354.32421875 177.61328125 C-352.8881103 179.06127348 -351.4499626 180.50724609 -350.00976562 181.95117188 C-348.56871366 183.40465375 -347.12796125 184.85843269 -345.6875 186.3125 C-342.77763857 189.24899051 -339.86441762 192.18209062 -336.94921875 195.11328125 C-336.29306076 195.77773758 -335.63690277 196.44219391 -334.96086121 197.12678528 C-334.35204605 197.73890366 -333.7432309 198.35102203 -333.1159668 198.98168945 C-332.58464645 199.51824661 -332.05332611 200.05480377 -331.50590515 200.60762024 C-329.84319423 202.21834936 -329.84319423 202.21834936 -327 204 C-327 204.66 -327 205.32 -327 206 C-326.44280273 206.23122559 -325.88560547 206.46245117 -325.31152344 206.70068359 C-322.3838402 208.34634585 -320.37614812 210.39975251 -318.015625 212.7890625 C-317.55516785 213.25234955 -317.09471069 213.7156366 -316.62030029 214.19296265 C-315.15874922 215.66565898 -313.70432832 217.14517403 -312.25 218.625 C-311.25697389 219.62806322 -310.26348911 220.63067257 -309.26953125 221.6328125 C-306.84102059 224.08330835 -304.41885325 226.5399667 -302 229 C-302.66 229.33 -303.32 229.66 -304 230 C-305.80274963 229.32351685 -305.80274963 229.32351685 -308.01782227 228.18017578 C-308.85324051 227.75389893 -309.68865875 227.32762207 -310.5493927 226.88842773 C-311.46250717 226.41219971 -312.37562164 225.93597168 -313.31640625 225.4453125 C-314.26855515 224.95667725 -315.22070404 224.46804199 -316.20170593 223.96459961 C-319.32593146 222.35896508 -322.44420605 220.74211975 -325.5625 219.125 C-327.69918505 218.02387948 -329.83623092 216.92345887 -331.97363281 215.82373047 C-336.27449229 213.60936491 -340.57302458 211.39057907 -344.86962891 209.16796875 C-350.35883218 206.32922398 -355.85536862 203.50506113 -361.35546875 200.6875 C-363.61462395 199.52904569 -365.87362971 198.37030074 -368.13253784 197.21136475 C-369.53860699 196.48998045 -370.94479504 195.76882785 -372.35110474 195.0479126 C-374.28193011 194.05728072 -376.21147803 193.06420803 -378.140625 192.0703125 C-379.20829102 191.52133301 -380.27595703 190.97235352 -381.37597656 190.40673828 C-384 189 -384 189 -387 187 C-386.39414062 187.78761719 -385.78828125 188.57523438 -385.1640625 189.38671875 C-384.76477539 189.90580811 -384.36548828 190.42489746 -383.95410156 190.9597168 C-383.0524715 192.13180275 -382.15077667 193.30383888 -381.24902344 194.47583008 C-379.03173658 197.35776668 -376.81545288 200.24045227 -374.6015625 203.125 C-373.43753906 204.6409375 -373.43753906 204.6409375 -372.25 206.1875 C-371.65771606 206.95900391 -371.65771606 206.95900391 -371.0534668 207.74609375 C-368.4805728 211.09170839 -365.89121658 214.42403127 -363.29296875 217.75 C-362.33632324 218.97553589 -362.33632324 218.97553589 -361.36035156 220.22583008 C-360.0943 221.84665257 -358.82675941 223.46631323 -357.55761719 225.0847168 C-356.98043945 225.82375244 -356.40326172 226.56278809 -355.80859375 227.32421875 C-355.29095459 227.98510498 -354.77331543 228.64599121 -354.23999023 229.3269043 C-353 231 -353 231 -352 233 C-334.51 232.67 -317.02 232.34 -299 232 C-293.56690431 272.67479748 -293.56690431 272.67479748 -291.98901367 288.88598633 C-291.88564697 289.8942749 -291.78228027 290.90256348 -291.67578125 291.94140625 C-291.59239502 292.80451416 -291.50900879 293.66762207 -291.4230957 294.55688477 C-290.34258152 300.7961839 -287.40074856 303.84256936 -282.625 307.75 C-281.68551514 308.524646 -281.68551514 308.524646 -280.72705078 309.31494141 C-279.44072573 310.37022907 -278.15083724 311.42118809 -276.85742188 312.46777344 C-275.13698481 313.88699833 -273.48031682 315.35406635 -271.828125 316.8515625 C-270.85359375 317.68429687 -269.8790625 318.51703125 -268.875 319.375 C-268.02679688 320.12523437 -267.17859375 320.87546875 -266.3046875 321.6484375 C-261.02245808 323.80878192 -256.43511808 322.21713384 -251 321 C-248.90430804 320.59034761 -246.807951 320.18408274 -244.7109375 319.78125 C-242.59855509 319.35616564 -240.48657518 318.92907624 -238.375 318.5 C-237.32054687 318.28730469 -236.26609375 318.07460938 -235.1796875 317.85546875 C-233.11150255 317.43824827 -231.04346306 317.02030596 -228.97558594 316.6015625 C-224.65177617 315.72743489 -220.32603508 314.86303737 -216 314 C-214.19116182 307.05106817 -212.55082172 300.07468054 -211.02734375 293.05859375 C-210.85715729 292.27739166 -210.68697083 291.49618958 -210.5116272 290.6913147 C-209.80517759 287.44437553 -209.10027622 284.19714718 -208.40405273 280.94799805 C-207.8883901 278.54607708 -207.36477335 276.14600394 -206.83984375 273.74609375 C-206.68458725 273.0117662 -206.52933075 272.27743866 -206.36936951 271.52085876 C-205.62720322 268.1549712 -204.93643647 265.9046547 -203 263 C-199.9543 274.06424646 -197.20387701 285.17795154 -194.6875 296.375 C-194.28797119 298.13034058 -194.28797119 298.13034058 -193.88037109 299.92114258 C-193.63496582 301.0273999 -193.38956055 302.13365723 -193.13671875 303.2734375 C-192.91717529 304.25747559 -192.69763184 305.24151367 -192.47143555 306.25537109 C-192.01724447 308.89960519 -191.91123625 311.32366614 -192 314 C-191.29834717 314.10884521 -190.59669434 314.21769043 -189.8737793 314.32983398 C-180.55190438 315.82392444 -171.37036868 317.82378742 -162.15820312 319.87695312 C-158.77788522 320.61726305 -155.39277761 321.31934043 -152 322 C-151.12827148 322.19045898 -150.25654297 322.38091797 -149.35839844 322.57714844 C-145.04666181 323.34017539 -143.55697358 323.33261888 -139.6640625 321.0078125 C-138.62874593 320.07093914 -137.61613836 319.10849216 -136.625 318.125 C-135.51647789 317.10844417 -134.40708704 316.09283493 -133.296875 315.078125 C-132.74966797 314.56314453 -132.20246094 314.04816406 -131.63867188 313.51757812 C-129.13292684 311.19700138 -126.51592345 309.04083669 -123.875 306.875 C-123.00617188 306.15054687 -122.13734375 305.42609375 -121.2421875 304.6796875 C-119 303 -119 303 -116 302 C-115.94956543 301.22543457 -115.89913086 300.45086914 -115.84716797 299.65283203 C-115.26229805 291.33675169 -114.28298673 283.12866535 -113.125 274.875 C-111.16867468 260.6081835 -109.51556347 246.32102718 -108 232 C-106.45911482 231.9799885 -104.9181811 231.96245565 -103.37719727 231.95263672 C-101.87631254 231.94226155 -100.37546772 231.92395613 -98.87475586 231.89892578 C-93.77511538 231.85944221 -88.75355937 232.07337521 -83.67651367 232.51719666 C-66.39078562 235.05624431 -66.39078562 235.05624431 -50.6484375 230.40625 C-48.12208584 227.56482608 -46.46976999 224.38379427 -44.92773438 220.92675781 C-43.45088602 217.85957697 -41.32748349 215.38123756 -39.1875 212.75 C-38.38957031 211.70972656 -37.59164063 210.66945313 -36.76953125 209.59765625 C-31.21624508 202.37026357 -25.6012016 195.19027245 -20 188 C-29.82145875 192.53827032 -39.54882393 197.21261079 -49.125 202.25 C-59.70208944 207.80843113 -70.30139666 213.32235958 -80.92425537 218.79284668 C-82.80552719 219.76296317 -84.68561949 220.73537049 -86.56451416 221.71008301 C-89.22237269 223.08852791 -91.88410546 224.45919638 -94.546875 225.828125 C-95.35524811 226.24940674 -96.16362122 226.67068848 -96.99649048 227.10473633 C-97.74369354 227.48686279 -98.49089661 227.86898926 -99.26074219 228.26269531 C-99.91306824 228.5995636 -100.56539429 228.93643188 -101.23748779 229.2835083 C-103 230 -103 230 -106 230 C-104.00325664 227.9758623 -102.00272875 225.95570237 -100 223.9375 C-99.44699219 223.37611328 -98.89398437 222.81472656 -98.32421875 222.23632812 C-95.40268681 219.29800577 -92.43364677 216.47791011 -89.28320312 213.78540039 C-84.94491946 210.00707118 -80.88617639 205.99665356 -76.84375 201.90625 C-76.0971814 201.15589478 -75.35061279 200.40553955 -74.5814209 199.63244629 C-72.21847975 197.2574008 -69.8588263 194.87913183 -67.5 192.5 C-64.38839354 189.36160783 -61.27336245 186.22667255 -58.15625 183.09375 C-57.10745667 182.03250916 -57.10745667 182.03250916 -56.03747559 180.9498291 C-50.37217624 175.25677693 -44.42002737 169.99509439 -38.2265625 164.88671875 C-37.02375289 163.8228947 -35.82321535 162.75649604 -34.625 161.6875 C-33.70267578 160.95950195 -33.70267578 160.95950195 -32.76171875 160.21679688 C-26.53071898 154.48345901 -26.70548442 147.00011303 -26.20343018 139.08126831 C-25.97101841 135.5610285 -25.68389531 132.04730601 -25.39208984 128.53149414 C-24.74237835 120.66481354 -24.14012359 112.7949108 -23.54486084 104.9239502 C-23.31645937 101.91673252 -23.08430666 98.90980908 -22.8521328 95.90288067 C-22.62760844 92.99047479 -22.40500781 90.07792446 -22.18303299 87.16532326 C-22.07747504 85.78224718 -21.97142179 84.39920881 -21.86484909 83.01621056 C-21.71708744 81.09387811 -21.57210725 79.17133249 -21.42724609 77.2487793 C-21.30305801 75.61479439 -21.30305801 75.61479439 -21.17636108 73.94779968 C-20.57969812 68.38150623 -20.57969812 68.38150623 -22.80078125 63.53515625 C-28.70382331 57.72391889 -34.48971268 53.51241574 -42 50 C-38.41029141 45.69564805 -34.72296989 41.6610851 -30.69799805 37.76342773 C-20.13139702 27.53066727 -11.46003185 16.32086012 -3.08276367 4.26538086 C-2.07802602 2.8273488 -1.042235 1.41109184 0 0 Z " fill="#929292" transform="translate(715,506)"/>
<path d="M0 0 C1.81762695 1.39282227 1.81762695 1.39282227 3.48828125 3.31640625 C4.11283203 3.99767578 4.73738281 4.67894531 5.38085938 5.38085938 C6.66543088 6.83168483 7.94155891 8.29003157 9.20898438 9.75585938 C13.13483977 14.06807859 13.13483977 14.06807859 18.69140625 15.25390625 C25.64165171 13.59304862 32.338039 10.66220151 38.9765625 8.0625 C40.0490625 7.65773437 41.1215625 7.25296875 42.2265625 6.8359375 C43.19158691 6.46001465 44.15661133 6.0840918 45.15087891 5.69677734 C48.50464536 4.87658459 50.67719239 5.1200538 54 6 C56.24067862 7.58487024 58.17110949 9.11016538 60.1875 10.9375 C60.74775879 11.42968018 61.30801758 11.92186035 61.88525391 12.42895508 C63.60028667 13.9416634 65.29994754 15.47049975 67 17 C68.01343029 17.89164058 69.02771099 18.78231582 70.04296875 19.671875 C75.45925004 24.48302694 80.42089706 29.39198931 85 35 C85.42893555 35.51127441 85.85787109 36.02254883 86.29980469 36.54931641 C94.11149797 45.86569942 100.95721087 55.44920504 107 66 C107.47969238 66.82967285 107.95938477 67.6593457 108.45361328 68.51416016 C120.27193316 89.22186239 128.14010879 111.46072052 132 135 C132.11424316 135.67981934 132.22848633 136.35963867 132.34619141 137.06005859 C135.2887998 155.04266547 135.2887998 155.04266547 134 162 C131.68730956 164.89332336 130.67876776 165.87273105 127 166.5625 C124 166 124 166 121.92651367 163.89453125 C119.73712129 160.60503231 119.00202696 157.98029514 118.17578125 154.125 C117.86661341 152.79655331 117.55602232 151.46843718 117.24414062 150.140625 C116.77234859 148.0699413 116.31221945 145.99865942 115.87719727 143.91992188 C114.41827425 135.71835623 114.41827425 135.71835623 109.84936523 129.12280273 C107.48970657 127.84346722 107.48970657 127.84346722 105.0715332 126.89404297 C102.14887535 125.63266724 101.05707412 123.73923738 99.4375 121.0625 C94.6790252 114.73972344 88.58693889 112.92128871 81.31933594 110.70751953 C78.83943597 109.95101952 76.37727579 109.14894543 73.9140625 108.33984375 C64.60878762 105.01937986 64.60878762 105.01937986 55 103 C52.37799925 105.0976006 50.86774768 107.19837848 49 110 C48.83974601 113.54578685 48.83974601 113.54578685 50 117 C51.98320018 118.03291676 53.98347806 119.0337499 56 120 C57.0625 122.9375 57.0625 122.9375 57 126 C54.72240459 130.20034806 51.48030604 131.43961535 47.1875 133.25 C45.98480469 133.77078125 44.78210938 134.2915625 43.54296875 134.828125 C38.76500619 136.40848748 34.79760142 136.47618505 30 135 C28.50171128 138.88235819 29.56889418 141.43449288 30.9375 145.25 C31.31777344 146.32765625 31.69804688 147.4053125 32.08984375 148.515625 C32.39019531 149.33546875 32.69054687 150.1553125 33 151 C33.81082031 151.01417969 34.62164063 151.02835938 35.45703125 151.04296875 C43.98441944 151.41027185 52.70093105 152.70093105 59 159 C59.61596588 161.72640636 59.32574431 163.41728304 57.96386719 165.85351562 C56.49026415 168.03206696 54.95127461 170.1445741 53.375 172.25 C51.77428675 174.43566525 50.17769501 176.62403606 48.58886719 178.81835938 C47.59197025 180.18717791 46.57918788 181.5447132 45.54394531 182.88476562 C40.34062959 190.00805905 37.35542908 198.19568596 34.08013916 206.32150269 C32.98465267 209.03805786 31.87675613 211.74923816 30.76513672 214.45922852 C29.24731357 218.16043089 27.73292771 221.86300265 26.22167969 225.56689453 C23.19191156 232.98430127 20.13238027 240.38887512 17.02978516 247.77612305 C16.4290806 249.21110348 15.83204066 250.64762376 15.23876953 252.08569336 C14.42018097 254.0698758 13.5904861 256.04903945 12.7578125 258.02734375 C12.2952002 259.13843506 11.83258789 260.24952637 11.35595703 261.39428711 C10 264 10 264 7 266 C4.28715129 266.22128109 1.71080614 266.32455875 -1 266.3125 C-1.72445312 266.32861328 -2.44890625 266.34472656 -3.1953125 266.36132812 C-8.52071253 266.36624086 -8.52071253 266.36624086 -10.66824341 264.72523499 C-12.18749218 262.75711173 -12.57432439 261.47075361 -12.99560547 259.03295898 C-13.13959778 258.23526596 -13.28359009 257.43757294 -13.4319458 256.6157074 C-13.64739044 255.31899864 -13.64739044 255.31899864 -13.8671875 253.99609375 C-14.02693054 253.09371475 -14.18667358 252.19133575 -14.35125732 251.26161194 C-14.69243734 249.32652233 -15.02823754 247.39047797 -15.35919189 245.45361328 C-15.8770841 242.42531355 -16.40970938 239.39995364 -16.94677734 236.375 C-17.65363395 232.3886954 -18.35590529 228.40164409 -19.05273438 224.41357422 C-22.79590656 202.78199103 -22.79590656 202.78199103 -28.125 181.5 C-28.36686035 180.66146484 -28.6087207 179.82292969 -28.85791016 178.95898438 C-30.28641064 174.19340334 -30.28641064 174.19340334 -34 171 C-36.69587539 170.81893374 -39.29693954 170.74698581 -41.9921875 170.76171875 C-43.60026885 170.74629879 -45.20834193 170.72999514 -46.81640625 170.71289062 C-49.34670278 170.696441 -51.8763927 170.68750389 -54.40673828 170.69458008 C-56.85258293 170.69720386 -59.29658877 170.66905582 -61.7421875 170.63671875 C-62.49442596 170.64692551 -63.24666443 170.65713226 -64.021698 170.66764832 C-67.87122744 170.59621527 -69.75704379 170.19136572 -72.81225586 167.78491211 C-74.84975579 165.19125497 -76.61436061 162.65954839 -78.26171875 159.8046875 C-78.82310547 158.84175781 -79.38449219 157.87882813 -79.96289062 156.88671875 C-80.53201172 155.89285156 -81.10113281 154.89898437 -81.6875 153.875 C-82.83670033 151.89291641 -83.98641702 149.91113209 -85.13671875 147.9296875 C-85.89021606 146.61846924 -85.89021606 146.61846924 -86.65893555 145.28076172 C-87.71471944 143.4851795 -88.84457199 141.73314201 -90 140 C-91.16367503 132.7122386 -87.60272566 126.6826641 -84.625 120.1875 C-84.11710937 119.04345703 -83.60921875 117.89941406 -83.0859375 116.72070312 C-79.30245536 108.30245536 -79.30245536 108.30245536 -77 106 C-65.11450656 104.98621956 -52.85255202 106.41437391 -40.98666382 107.22625732 C-25.73007408 108.26198709 -10.46685119 109.24675298 4.8125 109.875 C6.03146973 109.9361499 7.25043945 109.9972998 8.50634766 110.06030273 C10.15256104 110.11939819 10.15256104 110.11939819 11.83203125 110.1796875 C12.76764893 110.21819824 13.7032666 110.25670898 14.66723633 110.29638672 C17.04916399 110.19385628 17.04916399 110.19385628 18.72045898 108.67163086 C20.62905343 106.17818568 21.90366082 103.52069434 23.25 100.6875 C23.79140625 99.57761719 24.3328125 98.46773438 24.890625 97.32421875 C26.18219474 93.4540573 26.38638111 91.83615132 25 88 C22.99341516 85.44218437 20.69366585 83.26890138 18.3125 81.0625 C17.07695493 79.88931683 15.84386555 78.71354186 14.61328125 77.53515625 C14.0095166 76.95910645 13.40575195 76.38305664 12.78369141 75.78955078 C10.44703808 73.44522161 8.33959894 70.94590884 6.25073242 68.38061523 C5.02749501 66.8626587 5.02749501 66.8626587 3 66 C-6.24846578 65.91468205 -15.36601594 68.16838544 -24.36328125 70.0625 C-25.56090088 70.30371582 -25.56090088 70.30371582 -26.78271484 70.54980469 C-28.67091905 70.93318374 -30.55304583 71.34629918 -32.43359375 71.765625 C-37.47417525 72.09687899 -41.88020324 70.97251486 -46.75 69.75 C-47.69488281 69.53214844 -48.63976562 69.31429687 -49.61328125 69.08984375 C-57.5347049 67.16301097 -57.5347049 67.16301097 -60 64 C-60.48828125 61.11328125 -60.48828125 61.11328125 -60 58 C-57.98046875 55.54296875 -57.98046875 55.54296875 -55.1875 53.1875 C-54.19105469 52.33414063 -53.19460938 51.48078125 -52.16796875 50.6015625 C-51.11385803 49.73209212 -50.05786207 48.8649023 -49 48 C-47.98550781 47.16210938 -46.97101562 46.32421875 -45.92578125 45.4609375 C-44.0629557 43.93386822 -42.19261491 42.41588781 -40.3125 40.91015625 C-37.48808725 38.62141603 -37.48808725 38.62141603 -35 36 C-34.61008312 31.63293092 -34.53675931 29.69486103 -37 26 C-37.24609375 22.72265625 -37.24609375 22.72265625 -36 19 C-32.98024856 16.31430905 -29.57304479 14.41591035 -26.0625 12.4375 C-25.14919922 11.89931641 -24.23589844 11.36113281 -23.29492188 10.80664062 C-21.45670591 9.72556669 -19.61109226 8.65697314 -17.75830078 7.60107422 C-15.90222397 6.52370197 -14.06699545 5.40967765 -12.25341797 4.26220703 C-11.38475098 3.71290527 -10.51608398 3.16360352 -9.62109375 2.59765625 C-8.46565063 1.84947632 -8.46565063 1.84947632 -7.28686523 1.08618164 C-4.57130803 -0.20361381 -2.97073508 -0.45202944 0 0 Z " fill="#191A18" transform="translate(580,208)"/>
<path d="M0 0 C3.79037463 3.53968848 7.75971014 7.32991545 8.125 12.6875 C6.32819669 16.09196942 4.55807851 16.66712157 0.9375 17.9375 C-7.27737062 19.93717245 -7.27737062 19.93717245 -11.015625 17.84375 C-12.75 16.4375 -12.75 16.4375 -14.19921875 14.96875 C-17.19643285 13.30991452 -19.89472085 14.14324634 -23.0625 14.9375 C-26.56274905 15.9720251 -29.99868489 17.1532502 -33.4375 18.375 C-34.35144531 18.68759766 -35.26539063 19.00019531 -36.20703125 19.32226562 C-37.07457031 19.62712891 -37.94210937 19.93199219 -38.8359375 20.24609375 C-39.62403809 20.52251709 -40.41213867 20.79894043 -41.22412109 21.08374023 C-43.24942613 21.79231274 -43.24942613 21.79231274 -44.0625 23.9375 C-44.18643466 26.4507797 -44.24765112 28.92420114 -44.25 31.4375 C-44.26224609 32.12714844 -44.27449219 32.81679687 -44.28710938 33.52734375 C-44.29238695 35.33227494 -44.18434458 37.13667842 -44.0625 38.9375 C-41.3537219 41.6462781 -39.88576137 41.19033792 -36.1015625 41.2109375 C-34.31105469 41.241875 -34.31105469 41.241875 -32.484375 41.2734375 C-29.9610052 41.29939809 -27.43754421 41.3176758 -24.9140625 41.328125 C-23.7178125 41.35132813 -22.5215625 41.37453125 -21.2890625 41.3984375 C-19.64284912 41.41076416 -19.64284912 41.41076416 -17.96337891 41.42333984 C-14.40141457 42.05467269 -13.30429613 43.16102443 -11.0625 45.9375 C-9.75052056 47.87613629 -8.50224779 49.85903847 -7.3125 51.875 C-6.69890625 52.89464844 -6.0853125 53.91429687 -5.453125 54.96484375 C-3.2338598 59.70883482 -3.2338598 59.70883482 -4.0625 62.9375 C-8.85147056 68.53680544 -15.9625587 72.33009353 -22.0625 76.3125 C-31.57615724 82.58438496 -40.97990967 88.99186683 -50.31054688 95.53271484 C-52.06953359 96.76496499 -53.83529139 97.98761879 -55.60839844 99.19946289 C-58.05884114 100.88329256 -58.05884114 100.88329256 -60.19628906 102.73608398 C-67.07026864 108.22454206 -73.49200465 107.1882415 -81.9375 106.75 C-91.14994993 106.3794216 -91.14994993 106.3794216 -99.53955078 109.54638672 C-104.19353706 114.38778184 -108.1303954 120.87509163 -108.015625 127.7421875 C-106.85605197 130.41300736 -105.55096573 131.88107137 -103.375 133.8125 C-102.71113281 134.42867187 -102.04726563 135.04484375 -101.36328125 135.6796875 C-98.12976115 137.44741835 -96.59018053 136.90889029 -93.0625 135.9375 C-89.62675028 134.71843429 -86.25968076 133.33882901 -82.89648438 131.93359375 C-78.90704027 130.34993978 -76.1639416 129.38937088 -72.0625 130.9375 C-69.1875 133.25 -69.1875 133.25 -67.0625 135.9375 C-67.0625 138.72967194 -67.86979266 139.71514537 -69.6875 141.8125 C-71.34814678 143.90540731 -71.34814678 143.90540731 -70.83642578 146.70361328 C-69.41596915 152.63906075 -66.84990638 157.09521815 -62.0625 160.9375 C-56.37575941 162.07907057 -50.93173745 161.5893709 -45.1875 161.0625 C-30.08266515 159.74159398 -30.08266515 159.74159398 -24.95581055 162.77661133 C-22.45786887 165.03840257 -20.25692341 167.38406848 -18.0625 169.9375 C-16.26508215 171.43495763 -14.45609379 172.91891422 -12.625 174.375 C-9.75374413 176.65840822 -7.09647702 178.90209404 -4.5546875 181.55078125 C2.36640051 188.69410603 8.64687917 190.82592909 18.09375 192.90234375 C22.91906366 194.20184387 22.91906366 194.20184387 24.9375 196.9375 C25.06637573 198.84724426 25.06637573 198.84724426 24.72216797 200.99926758 C24.60113708 201.79974518 24.4801062 202.60022278 24.35540771 203.42495728 C24.21749817 204.25409637 24.07958862 205.08323547 23.9375 205.9375 C23.83745667 206.7158017 23.73741333 207.49410339 23.63433838 208.29598999 C21.10143834 227.19796698 12.65360375 242.95620425 3.93505859 259.60186768 C0.95747896 265.29977519 -1.97218152 271.02247667 -4.90273666 276.74466515 C-5.91654094 278.71365181 -6.94296885 280.67558677 -7.97195435 282.63667297 C-15.8027249 297.68715958 -17.33028628 308.31233915 -14.0625 324.9375 C-13.7325 325.5975 -13.4025 326.2575 -13.0625 326.9375 C-12.62213303 332.11181193 -12.62213303 332.11181193 -14.0625 334.8125 C-17.19189738 336.57278603 -20.56550285 336.65664054 -24.0625 335.9375 C-26.73517397 333.73942107 -27.73557069 331.6711612 -28.82421875 328.421875 C-29.13939453 327.49761719 -29.45457031 326.57335937 -29.77929688 325.62109375 C-30.09962891 324.65300781 -30.41996094 323.68492187 -30.75 322.6875 C-31.37837354 320.8279449 -32.00731318 318.96858104 -32.63671875 317.109375 C-33.16531494 315.48817749 -33.16531494 315.48817749 -33.70458984 313.83422852 C-34.71290861 310.83326087 -35.87644783 307.91953155 -37.08056641 304.99194336 C-43.24488578 289.51531909 -44.20548246 275.53943875 -44.0625 259 C-44.0706181 256.55141771 -44.08231917 254.10284459 -44.09765625 251.65429688 C-44.12704901 245.74816395 -44.11296132 239.84346379 -44.0625 233.9375 C-47.50553275 232.05159491 -50.94992185 230.16817982 -54.39453125 228.28515625 C-55.35427856 227.75942017 -56.31402588 227.23368408 -57.30285645 226.6920166 C-65.90697685 221.99113182 -74.59480165 217.46341572 -83.3269043 213.00561523 C-85.25493591 211.81907166 -86.62486984 210.68982063 -88.0625 208.9375 C-89.12934962 203.19245351 -90.35558353 195.40489271 -86.95361328 190.26074219 C-84.65545752 187.84852801 -82.11571618 185.98757397 -79.37109375 184.11328125 C-78.60925781 183.39527344 -77.84742188 182.67726563 -77.0625 181.9375 C-77.48718968 174.79854844 -81.52581431 169.20054975 -85.0625 163.1875 C-85.69800781 162.03894531 -86.33351563 160.89039063 -86.98828125 159.70703125 C-90.24000209 153.85630356 -90.24000209 153.85630356 -95.30664062 149.75048828 C-97.61203184 149.20662464 -99.69743007 148.99230554 -102.0625 148.9375 C-103.3309375 148.82148438 -104.599375 148.70546875 -105.90625 148.5859375 C-107.1128125 148.49570312 -108.319375 148.40546875 -109.5625 148.3125 C-117.33587609 147.3466697 -120.88119348 144.54497459 -126.0625 138.9375 C-127.0525 138.23625 -128.0425 137.535 -129.0625 136.8125 C-131.80389562 134.24244161 -131.77092899 132.66789383 -132.0625 128.9375 C-131.60753885 126.07941072 -131.06519562 123.46506537 -130.3125 120.6875 C-130.0949707 119.87756592 -129.87744141 119.06763184 -129.65332031 118.2331543 C-117.40926208 75.42296507 -89.8085481 37.22646256 -54.0625 10.9375 C-53.33220581 10.29349243 -53.33220581 10.29349243 -52.5871582 9.63647461 C-46.95124165 4.94675305 -40.29341061 4.09528774 -33.25 2.75 C-31.41985352 2.3797168 -31.41985352 2.3797168 -29.55273438 2.00195312 C-26.05891014 1.29793158 -22.56124912 0.616542 -19.0625 -0.0625 C-16.39728421 -0.59922979 -13.73270617 -1.13892877 -11.06860352 -1.68115234 C-6.32246246 -2.5833639 -4.09670035 -2.75900228 0 0 Z " fill="#191A18" transform="translate(446.0625,201.0625)"/>
<path d="M0 0 C6.17821972 4.33789895 7.11091536 11.06096077 9 18 C9.38273071 19.09223877 9.38273071 19.09223877 9.77319336 20.20654297 C12.12916807 27.12865758 12.42088596 33.47513447 12.3125 40.75 C12.31572266 41.84699219 12.31894531 42.94398438 12.32226562 44.07421875 C12.23875277 56.60114707 12.23875277 56.60114707 8.5559082 60.54736328 C7.36407554 61.67660846 6.16002902 62.79306462 4.94580078 63.89819336 C-2.78229566 71.00474528 -5.48954272 76.52132176 -6 87.00463867 C-6.04617086 89.00255903 -6.03011321 91.00177311 -6 93 C-4.9171875 92.57203125 -3.834375 92.1440625 -2.71875 91.703125 C2.59481404 89.712869 8.02951793 88.24152204 13.5 86.75 C20.31846627 84.8742464 27.12659811 82.9786148 33.90234375 80.953125 C35.54783203 80.46247559 35.54783203 80.46247559 37.2265625 79.96191406 C39.3389981 79.32908284 41.44973954 78.69056382 43.55859375 78.04589844 C44.50734375 77.76262695 45.45609375 77.47935547 46.43359375 77.1875 C47.26947021 76.93355469 48.10534668 76.67960938 48.96655273 76.41796875 C51 76 51 76 53 77 C41.97017557 84.02716936 30.87599558 90.93427327 19.69311523 97.71533203 C13.27397554 101.60963503 6.87865251 105.53977389 0.5 109.5 C-2.08041849 111.09750779 -4.66127022 112.69431381 -7.2421875 114.29101562 C-9.18631092 115.49576633 -11.12887574 116.70303394 -13.0703125 117.91210938 C-16.20917422 119.86522173 -19.35403054 121.8083625 -22.5 123.75 C-23.47388672 124.35908203 -24.44777344 124.96816406 -25.45117188 125.59570312 C-26.36447266 126.15708984 -27.27777344 126.71847656 -28.21875 127.296875 C-29.02248047 127.79541992 -29.82621094 128.29396484 -30.65429688 128.80761719 C-33.1640078 130.0833695 -35.20255857 130.70696751 -38 131 C-40.85546875 129.69140625 -40.85546875 129.69140625 -44.1875 127.5625 C-45.52467986 126.72386309 -46.86192467 125.88532975 -48.19921875 125.046875 C-48.95122559 124.56798828 -49.70323242 124.08910156 -50.47802734 123.59570312 C-54.35406614 121.14325496 -58.26702041 118.75157166 -62.17626953 116.35253906 C-64.9824374 114.63016954 -67.78617793 112.90393984 -70.58874512 111.17572021 C-77.31453422 107.0290094 -84.05908893 102.91402388 -90.8125 98.8125 C-94.54277192 96.54347815 -98.27180098 94.27242607 -102 92 C-102.98597168 91.39929688 -103.97194336 90.79859375 -104.98779297 90.1796875 C-107.91147841 88.39538994 -110.83127351 86.60489516 -113.75 84.8125 C-115.08188354 84.00099487 -115.08188354 84.00099487 -116.44067383 83.1730957 C-117.66886841 82.4164563 -117.66886841 82.4164563 -118.921875 81.64453125 C-119.63956055 81.20471924 -120.35724609 80.76490723 -121.09667969 80.31176758 C-122.96272486 79.02569001 -124.45725678 77.65376023 -126 76 C-118.8858164 77.91592836 -111.78935981 79.89393369 -104.6953125 81.8828125 C-103.76297791 82.14398865 -102.83064331 82.40516479 -101.87005615 82.67425537 C-97.96125824 83.76927587 -94.052495 84.86440794 -90.14453125 85.96240234 C-87.26609498 86.77089311 -84.38701329 87.57704922 -81.5078125 88.3828125 C-80.62755402 88.6307254 -79.74729553 88.87863831 -78.84036255 89.13406372 C-74.91219899 90.23150979 -71.02120863 91.29013253 -67 92 C-67.11465421 89.77027727 -67.24214766 87.54121247 -67.375 85.3125 C-67.47941406 83.45044922 -67.47941406 83.45044922 -67.5859375 81.55078125 C-68.39441821 74.61767779 -71.31887167 71.18683528 -76 66.3125 C-76.81984375 65.44141602 -76.81984375 65.44141602 -77.65625 64.55273438 C-79.74335133 62.34030466 -81.8492912 60.1507088 -84 58 C-84.59883909 53.68383902 -84.72864326 49.34393277 -84.89892578 44.99316406 C-84.98735791 43.24929952 -85.15694366 41.50993724 -85.33984375 39.7734375 C-85.93344488 31.37970921 -83.95740999 24.06476489 -81.5625 16.0625 C-81.25707275 14.98371582 -80.95164551 13.90493164 -80.63696289 12.79345703 C-77.85473737 4.14558045 -73.75221025 0.16857336 -65.90405273 -4.15454102 C-63.94110439 -5.1253613 -61.96438774 -5.98450333 -59.9375 -6.8125 C-59.28201172 -7.09802734 -58.62652344 -7.38355469 -57.95117188 -7.67773438 C-38.04804202 -16.11259078 -17.7085659 -11.67597752 0 0 Z " fill="#929292" transform="translate(548,636)"/>
<path d="M0 0 C2.69526 2.69526 2.82224204 4.91167188 3.62109375 8.6328125 C3.83923485 9.63705765 3.83923485 9.63705765 4.06178284 10.66159058 C4.3702688 12.08826199 4.67517576 13.5157112 4.97680664 14.94384766 C5.42581451 17.06967505 5.88461634 19.19316998 6.34570312 21.31640625 C7.83051923 28.20126619 9.22476899 35.09597681 10.49609375 42.0234375 C12.13274961 50.93531475 14.10853901 59.76503716 16.09863281 68.60351562 C19.33221937 82.99732741 19.33221937 82.99732741 20 90 C20.55510254 90.153479 21.11020508 90.30695801 21.68212891 90.46508789 C28.7702199 92.50139415 35.631318 95.02087988 42.49755859 97.70629883 C44.3890286 98.44296368 46.28606955 99.16386256 48.18359375 99.88476562 C49.38886719 100.35462891 50.59414063 100.82449219 51.8359375 101.30859375 C52.92438965 101.72939209 54.0128418 102.15019043 55.13427734 102.58374023 C60.83536326 105.40125594 62.92604803 109.38355361 65.3125 115.07421875 C65.60809814 115.75748734 65.90369629 116.44075592 66.20825195 117.14472961 C67.14783236 119.3219132 68.07416152 121.50444237 69 123.6875 C69.62150803 125.1351471 70.24389595 126.58241678 70.8671875 128.02929688 C72.05798502 130.79488613 73.2419816 133.56323993 74.421875 136.33349609 C75.7217036 139.35342585 77.06364355 142.34546567 78.4375 145.33203125 C80 149 80 149 80 152 C80.66257812 152.23203125 81.32515625 152.4640625 82.0078125 152.703125 C85.86790408 154.3761673 89.31020383 156.52708228 92.875 158.75 C94.49065375 159.74777106 96.10655105 160.74514782 97.72265625 161.7421875 C98.57875488 162.27166992 99.43485352 162.80115234 100.31689453 163.34667969 C104.96797076 166.21265678 109.64218208 169.0405323 114.3125 171.875 C122.70173682 176.9747233 131.0627019 182.11811808 139.40380859 187.29614258 C145.96199997 191.36542707 152.54227701 195.39732712 159.1418457 199.39916992 C163.1603695 201.84360231 167.10601847 204.36135524 171 207 C168.33972815 208.77351456 166.57893474 209.57029039 163.58984375 210.48046875 C162.69571777 210.75383057 161.8015918 211.02719238 160.88037109 211.30883789 C159.90922363 211.59879639 158.93807617 211.88875488 157.9375 212.1875 C156.92252441 212.49357178 155.90754883 212.79964355 154.86181641 213.11499023 C146.15335174 215.71345159 137.39276616 218.09901534 128.60913086 220.42871094 C120.48038765 222.58592843 112.39052538 224.85785706 104.31982422 227.22290039 C103.51303223 227.4574292 102.70624023 227.69195801 101.875 227.93359375 C100.81925781 228.2438147 100.81925781 228.2438147 99.7421875 228.56030273 C98 229 98 229 96 229 C96.24121582 229.55236328 96.48243164 230.10472656 96.73095703 230.67382812 C100.83626524 240.09866314 104.93270909 249.52911353 108.625 259.125 C108.8842627 259.78048828 109.14352539 260.43597656 109.41064453 261.11132812 C111.11846664 265.64460009 111.11846664 265.64460009 110 269 C109.11699219 268.23816406 108.23398437 267.47632813 107.32421875 266.69140625 C106.1120722 265.64832938 104.89982541 264.60536898 103.6875 263.5625 C103.05682617 263.01843506 102.42615234 262.47437012 101.77636719 261.91381836 C98.78829767 259.34653472 95.79105026 256.80698467 92.69140625 254.375 C91.72074219 253.611875 90.75007813 252.84875 89.75 252.0625 C88.87859375 251.39347656 88.0071875 250.72445312 87.109375 250.03515625 C82.45361566 245.54321067 82.41870611 239.52656904 81.78125 233.4140625 C81.67784302 232.48008636 81.57443604 231.54611023 81.46789551 230.58383179 C81.13856358 227.59824327 80.81888586 224.61172063 80.5 221.625 C80.07564405 217.72105361 79.6472676 213.8175539 79.21875 209.9140625 C79.11618896 208.96976379 79.01362793 208.02546509 78.90795898 207.05255127 C78.17540403 200.37302177 77.31904804 193.72086211 76.34960938 187.07177734 C76.00212786 184.01869602 75.9376449 181.06983418 76 178 C74.89188965 178.14904785 73.7837793 178.2980957 72.64208984 178.45166016 C64.69634037 179.43929575 56.71492619 179.85557564 48.71972656 180.21679688 C46.65871507 180.32215625 44.59883361 180.4526611 42.54101562 180.60839844 C25.94166 181.84406932 25.94166 181.84406932 21.15808105 178.84533691 C17.53477154 175.45490767 15.34639436 171.3243061 13 167 C11.80698096 165.38925461 10.58126454 163.80178339 9.3125 162.25 C8.76360107 161.54560791 8.21470215 160.84121582 7.64916992 160.11547852 C7.10494385 159.41737061 6.56071777 158.7192627 6 158 C4.80845944 156.46755234 3.61705427 154.9349994 2.42578125 153.40234375 C0.2620247 150.61933231 -1.9073813 147.84091074 -4.08203125 145.06640625 C-4.99232936 143.89854806 -5.9024948 142.73058644 -6.8125 141.5625 C-7.60269531 140.55316406 -8.39289063 139.54382813 -9.20703125 138.50390625 C-11 136 -11 136 -12 133 C-8.70725883 134.28014678 -5.52756337 135.67211315 -2.3671875 137.25 C-1.4898999 137.68763672 -0.6126123 138.12527344 0.29125977 138.57617188 C1.22639404 139.04603516 2.16152832 139.51589844 3.125 140 C4.11363037 140.49564453 5.10226074 140.99128906 6.12084961 141.50195312 C12.6931212 144.80894238 19.21899832 148.19311471 25.71655273 151.64404297 C34.99582849 156.55665696 44.34550601 161.33313621 53.6875 166.125 C54.54078888 166.56271729 55.39407776 167.00043457 56.27322388 167.45141602 C61.18148694 169.96890417 66.09045797 172.48500703 71 175 C68.53118789 171.84175533 66.00353182 168.87570714 63.171875 166.0390625 C62.45386719 165.31976562 61.73585938 164.60046875 60.99609375 163.859375 C60.25488281 163.12203125 59.51367188 162.3846875 58.75 161.625 C58.02425781 160.89539063 57.29851562 160.16578125 56.55078125 159.4140625 C55.82761719 158.6921875 55.10445313 157.9703125 54.359375 157.2265625 C53.71452148 156.58283691 53.06966797 155.93911133 52.40527344 155.27587891 C50.40779147 153.38585385 48.37533175 151.58909822 46.29199219 149.79638672 C41.63870416 145.74703722 37.305917 141.41416724 32.96875 137.03125 C32.13339722 136.1921106 31.29804443 135.35297119 30.43737793 134.48840332 C26.89663871 130.9314548 23.36192676 127.3685388 19.82666016 123.80615234 C17.2302794 121.19159836 14.63083434 118.58011816 12.03125 115.96875 C11.24455933 115.17376099 10.45786865 114.37877197 9.64733887 113.55969238 C8.89295532 112.80200562 8.13857178 112.04431885 7.36132812 111.26367188 C6.63683472 110.52514984 5.91234131 109.78662781 5.16589355 109.02572632 C3.07822365 106.964649 3.07822365 106.964649 0.73352051 105.47940063 C-3.0539649 102.88103801 -4.71730597 101.06905377 -5.91271973 96.54840088 C-6.59886623 92.10350859 -6.84170983 87.63483542 -7.09375 83.1484375 C-7.21373005 81.48541945 -7.33687315 79.82262689 -7.4630127 78.1600647 C-7.78543058 73.79063018 -8.06247318 69.41943618 -8.33068848 65.04638672 C-8.55502473 61.50682321 -8.81030091 57.96983009 -9.06758881 54.43253136 C-12.17407039 11.70943882 -12.17407039 11.70943882 -8.59375 7.32421875 C-7.08984375 5.94726562 -7.08984375 5.94726562 -5.5 4.6875 C-4.97535156 4.22150391 -4.45070313 3.75550781 -3.91015625 3.27539062 C-2.63490972 2.15085505 -1.32115722 1.07022314 0 0 Z " fill="#E8E8E8" transform="translate(340,560)"/>
<path d="M0 0 C2.69526 2.69526 2.82224204 4.91167188 3.62109375 8.6328125 C3.83923485 9.63705765 3.83923485 9.63705765 4.06178284 10.66159058 C4.3702688 12.08826199 4.67517576 13.5157112 4.97680664 14.94384766 C5.42581451 17.06967505 5.88461634 19.19316998 6.34570312 21.31640625 C7.83051923 28.20126619 9.22476899 35.09597681 10.49609375 42.0234375 C12.13274961 50.93531475 14.10853901 59.76503716 16.09863281 68.60351562 C19.33221937 82.99732741 19.33221937 82.99732741 20 90 C20.55365234 90.15130371 21.10730469 90.30260742 21.67773438 90.45849609 C29.481342 92.68697176 36.96697422 95.62422812 44.5 98.625 C45.7863183 99.13316712 47.07277584 99.64098189 48.359375 100.1484375 C57.65146684 103.82573342 57.65146684 103.82573342 60 105 C59.32284328 110.33398599 58.26698183 115.48299179 57.00390625 120.70703125 C56.81030014 121.51363693 56.61669403 122.32024261 56.41722107 123.15129089 C56.00963738 124.84339009 55.60027282 126.53506123 55.18920898 128.22631836 C54.56060004 130.8203404 53.9432195 133.41687875 53.32617188 136.01367188 C52.92776671 137.66162369 52.52870153 139.30941612 52.12890625 140.95703125 C51.94550186 141.73407913 51.76209747 142.51112701 51.57313538 143.3117218 C50.22877065 148.77122935 50.22877065 148.77122935 48 151 C38.28859363 142.64353292 29.38826643 133.46670762 20.375 124.375 C17.28162939 121.25483039 14.18481685 118.13813497 11.0859375 115.0234375 C10.39301605 114.32221771 9.7000946 113.62099792 8.98617554 112.89852905 C7.98440781 111.89180649 7.98440781 111.89180649 6.96240234 110.86474609 C6.31378235 110.20209747 5.66516235 109.53944885 4.99688721 108.85671997 C3.05561299 106.95032824 3.05561299 106.95032824 0.79168701 105.53756714 C-3.01043545 102.92966744 -4.71349032 101.08027193 -5.91641235 96.54470825 C-6.59930947 92.10111057 -6.8418062 87.6331201 -7.09375 83.1484375 C-7.21373005 81.48541945 -7.33687315 79.82262689 -7.4630127 78.1600647 C-7.78543058 73.79063018 -8.06247318 69.41943618 -8.33068848 65.04638672 C-8.55502473 61.50682321 -8.81030091 57.96983009 -9.06758881 54.43253136 C-12.17407039 11.70943882 -12.17407039 11.70943882 -8.59375 7.32421875 C-7.08984375 5.94726562 -7.08984375 5.94726562 -5.5 4.6875 C-4.97535156 4.22150391 -4.45070313 3.75550781 -3.91015625 3.27539062 C-2.63490972 2.15085505 -1.32115722 1.07022314 0 0 Z " fill="#FDFDFD" transform="translate(340,560)"/>
<path d="M0 0 C-0.67030909 6.04412083 -1.726082 11.91831573 -2.99609375 17.86328125 C-3.18969986 18.77708054 -3.38330597 19.69087982 -3.58277893 20.63237 C-3.99033947 22.54964411 -4.3997041 24.46653553 -4.81079102 26.38305664 C-5.43902812 29.31964295 -6.05664141 32.25833959 -6.67382812 35.19726562 C-7.07227144 37.06524191 -7.47133803 38.93308538 -7.87109375 40.80078125 C-8.05449814 41.67889969 -8.23790253 42.55701813 -8.42686462 43.46174622 C-8.69207664 44.6839814 -8.69207664 44.6839814 -8.96264648 45.9309082 C-9.11507309 46.64624222 -9.26749969 47.36157623 -9.42454529 48.09858704 C-10 50 -10 50 -12 53 C-13.78979492 53.62841797 -13.78979492 53.62841797 -15.98046875 53.9921875 C-17.21615601 54.21032104 -17.21615601 54.21032104 -18.47680664 54.43286133 C-19.37133545 54.57876709 -20.26586426 54.72467285 -21.1875 54.875 C-23.08650079 55.2064239 -24.98492102 55.54118781 -26.8828125 55.87890625 C-27.87829102 56.05566895 -28.87376953 56.23243164 -29.89941406 56.41455078 C-36.14920596 57.5946296 -42.34414979 59.05359234 -48.53393555 60.51318359 C-49.45215088 60.72152832 -50.37036621 60.92987305 -51.31640625 61.14453125 C-52.12537354 61.33378174 -52.93434082 61.52303223 -53.76782227 61.71801758 C-56.33271494 62.0420306 -57.67030392 62.1643926 -60 61 C-61.40039062 58.3671875 -61.40039062 58.3671875 -62.65625 54.875 C-62.88526001 54.25407471 -63.11427002 53.63314941 -63.35021973 52.9934082 C-64.08191472 51.00073349 -64.79156611 49.00104882 -65.5 47 C-66.21098188 45.03428734 -66.92647728 43.07027504 -67.64331055 41.10668945 C-68.33263657 39.21795056 -69.01791451 37.32773584 -69.703125 35.4375 C-71.09160483 31.75719201 -72.63055517 28.18821056 -74.31835938 24.63671875 C-75 23 -75 23 -75 21 C-61.98609391 16.92824467 -48.93338136 13.12075997 -35.74829102 9.64208984 C-27.13648404 7.35224522 -18.61609569 4.81665498 -10.11914062 2.1328125 C-9.22517578 1.85308594 -8.33121094 1.57335937 -7.41015625 1.28515625 C-6.23658569 0.91209351 -6.23658569 0.91209351 -5.03930664 0.53149414 C-3 0 -3 0 0 0 Z " fill="#FEFEFE" transform="translate(511,768)"/>
<path d="M0 0 C5.52754428 -0.3815159 9.88368733 1.00434995 15.0625 2.6875 C27.62781744 6.64622848 40.27781222 10.29437364 52.9375 13.9375 C55.01246362 14.5353572 57.08741501 15.13325683 59.16235352 15.73120117 C64.10775123 17.15582231 69.05370931 18.57848255 74 20 C72.36028874 24.98081692 70.69460092 29.94037425 68.84375 34.84765625 C68.46089844 35.86537109 68.07804688 36.88308594 67.68359375 37.93164062 C67.29300781 38.96482422 66.90242187 39.99800781 66.5 41.0625 C66.10941406 42.09955078 65.71882812 43.13660156 65.31640625 44.20507812 C64.55924503 46.21525194 63.80146106 48.22519134 63.04296875 50.23486328 C61.69020385 53.82133688 60.34447911 57.41041314 59 61 C50.91479391 60.32700109 43.0532481 58.69673354 35.12426758 57.04370117 C32.80861979 56.56169232 30.49136907 56.08804701 28.17382812 55.61523438 C26.68479327 55.30778799 25.19585737 54.99986187 23.70703125 54.69140625 C23.02252396 54.55174942 22.33801666 54.41209259 21.63276672 54.26820374 C19.74926856 53.87262907 17.87425653 53.43727234 16 53 C14.90824463 52.83781982 13.81648926 52.67563965 12.69165039 52.50854492 C9.50660603 50.72347562 9.39986397 50.11802069 8.40087891 46.73730469 C7.98181975 44.88820486 7.59228032 43.03225969 7.2265625 41.171875 C7.01309174 40.19011292 6.79962097 39.20835083 6.5796814 38.19683838 C5.90323352 35.0526021 5.26460904 31.90191259 4.625 28.75 C4.17286401 26.64143451 3.71846305 24.53335332 3.26171875 22.42578125 C2.83130661 20.40407625 2.40285664 18.38195232 1.9765625 16.359375 C1.77664703 15.41229675 1.57673157 14.46521851 1.37075806 13.48944092 C0.44648698 8.92012305 -0.2463016 4.69043912 0 0 Z " fill="#FEFEFE" transform="translate(513,769)"/>
<path d="M0 0 C6.17707113 4.3370925 7.11676902 11.05457978 9 18 C9.57852258 19.87648991 10.16131845 21.75167226 10.75 23.625 C11.59768223 26.33938672 12 28.12157016 12 31 C2.00748944 29.50893098 -7.77815643 27.27715036 -17.5847168 24.88085938 C-19.57611983 24.39634013 -21.57076988 23.92767036 -23.56640625 23.4609375 C-24.73115479 23.18040527 -25.89590332 22.89987305 -27.09594727 22.61083984 C-35.77856216 21.25233178 -43.74676826 22.02393099 -52.26171875 23.96875 C-53.17838821 24.1685144 -54.09505768 24.36827881 -55.039505 24.57409668 C-57.92464675 25.20538083 -60.80598932 25.85236641 -63.6875 26.5 C-65.66057623 26.93464398 -67.63388208 27.36824698 -69.60742188 27.80078125 C-74.40768211 28.85519182 -79.20460599 29.9236842 -84 31 C-82.98268775 20.79812142 -81.46409112 6.82564368 -73.125 -0.1875 C-70.82421875 -1.6171875 -70.82421875 -1.6171875 -68 -3 C-67.08855225 -3.44907715 -67.08855225 -3.44907715 -66.15869141 -3.90722656 C-43.18196621 -15.03631673 -21.71476999 -14.31743076 0 0 Z " fill="#E7E7E7" transform="translate(548,636)"/>
<path d="M0 0 C0.33 0 0.66 0 1 0 C1.19110352 0.85529297 1.38220703 1.71058594 1.57910156 2.59179688 C2.14752052 5.13223973 2.71781705 7.67221905 3.28955078 10.21191406 C3.93358715 13.07629154 4.56604453 15.94290817 5.19091797 18.81152344 C7.1052402 27.62017938 7.1052402 27.62017938 9.7421875 36.234375 C11.02424771 39.88192064 12.06753819 43.07796081 12 47 C9.07356729 51.76878206 5.43822986 54.66433166 1 58 C-0.44744388 59.25949586 -1.8864776 60.52880077 -3.3125 61.8125 C-3.88613281 62.29332031 -4.45976563 62.77414062 -5.05078125 63.26953125 C-6.80891384 64.83035838 -8.46401107 66.44246426 -10.12182617 68.1081543 C-10.66111252 68.64941452 -11.20039886 69.19067474 -11.75602722 69.74833679 C-12.16653824 70.16138565 -12.57704926 70.57443451 -13 71 C-2.86844809 65.96088825 7.22701724 60.85745379 17.28445435 55.67202759 C19.5044643 54.52799133 21.72563139 53.38622694 23.94702148 52.24487305 C31.03540335 48.600821 38.11719982 44.94512931 45.17912292 41.25001526 C48.23902263 39.64950378 51.30180105 38.05454581 54.36477661 36.45993042 C55.82633376 35.69685207 57.28636922 34.93085184 58.74484253 34.16189575 C60.76507371 33.09691431 62.79008424 32.04161504 64.81640625 30.98828125 C66.54032593 30.08396362 66.54032593 30.08396362 68.29907227 29.16137695 C69.19037842 28.77812256 70.08168457 28.39486816 71 28 C71.66 28.33 72.32 28.66 73 29 C72.28457031 29.88558594 71.56914063 30.77117188 70.83203125 31.68359375 C65.84258891 37.87951697 60.88211948 44.09282065 56.07055664 50.4284668 C54.97480403 51.86036597 53.86431773 53.28110058 52.73999023 54.69067383 C50.05390314 58.08991607 47.76926581 61.27392864 45.96484375 65.22265625 C43.72664968 69.6675969 41.70264635 72.9698446 37 75 C26.07713522 76.53254103 14.90828609 75.19190409 3.98547363 74.17285156 C0.37051215 73.85813988 -3.25041474 73.70244045 -6.87475586 73.54125977 C-9.91997116 73.40463816 -12.95880139 73.20625734 -16 73 C-16.50579714 69.95919579 -17.00480759 66.91753354 -17.5 63.875 C-17.64308594 63.0190625 -17.78617188 62.163125 -17.93359375 61.28125 C-18.65695734 56.80328495 -19.17918816 52.55436565 -19 48 C-19.99 47.67 -20.98 47.34 -22 47 C-21.34 47 -20.68 47 -20 47 C-19.75523926 46.20706543 -19.51047852 45.41413086 -19.25830078 44.59716797 C-17.68662292 40.10413313 -15.7935812 35.79575119 -13.8671875 31.4453125 C-13.47048859 30.54376434 -13.07378967 29.64221619 -12.66506958 28.71334839 C-11.40421628 25.84945498 -10.13966478 22.98721204 -8.875 20.125 C-8.01668204 18.1771913 -7.15860644 16.22927577 -6.30078125 14.28125 C-4.20332607 9.51959268 -2.10283655 4.75928306 0 0 Z " fill="#CFCFCF" transform="translate(623,665)"/>
<path d="M0 0 C2.59147001 2.59147001 3.69639166 5.5625798 5.1171875 8.87890625 C5.41561554 9.56500473 5.71404358 10.25110321 6.02151489 10.95799255 C6.97713152 13.15759416 7.92620177 15.35994987 8.875 17.5625 C9.81600038 19.73442929 10.75830626 21.90578756 11.70100403 24.07698059 C12.30883732 25.47977637 12.91456227 26.8834877 13.51811218 28.28813171 C15.0918167 31.94581447 16.7344554 35.55410949 18.44921875 39.1484375 C19.99415775 42.62455024 20.38711939 45.22264707 19.9375 49.0625 C19.751875 50.69445312 19.751875 50.69445312 19.5625 52.359375 C18.54554855 58.94131077 17.33179928 65.47502116 16 72 C6.93002395 73.21996915 -2.14058529 73.80386792 -11.28027344 74.21679688 C-13.34128493 74.32215625 -15.40116639 74.4526611 -17.45898438 74.60839844 C-34.05834 75.84406932 -34.05834 75.84406932 -38.84191895 72.84533691 C-42.46522846 69.45490767 -44.65360564 65.3243061 -47 61 C-48.19301904 59.38925461 -49.41873546 57.80178339 -50.6875 56.25 C-51.23639893 55.54560791 -51.78529785 54.84121582 -52.35083008 54.11547852 C-52.89505615 53.41737061 -53.43928223 52.7192627 -54 52 C-55.19154056 50.46755234 -56.38294573 48.9349994 -57.57421875 47.40234375 C-59.7379753 44.61933231 -61.9073813 41.84091074 -64.08203125 39.06640625 C-64.99232936 37.89854806 -65.9024948 36.73058644 -66.8125 35.5625 C-67.60269531 34.55316406 -68.39289063 33.54382813 -69.20703125 32.50390625 C-71 30 -71 30 -72 27 C-68.70725883 28.28014678 -65.52756337 29.67211315 -62.3671875 31.25 C-61.4898999 31.68763672 -60.6126123 32.12527344 -59.70874023 32.57617188 C-58.77360596 33.04603516 -57.83847168 33.51589844 -56.875 34 C-55.88636963 34.49564453 -54.89773926 34.99128906 -53.87915039 35.50195312 C-47.3068788 38.80894238 -40.78100168 42.19311471 -34.28344727 45.64404297 C-25.00417151 50.55665696 -15.65449399 55.33313621 -6.3125 60.125 C-5.45921112 60.56271729 -4.60592224 61.00043457 -3.72677612 61.45141602 C1.18148694 63.96890417 6.09045797 66.48500703 11 69 C8.47543136 65.76193564 5.87487246 62.75472681 2.9609375 59.86328125 C2.21585937 59.12142578 1.47078125 58.37957031 0.703125 57.61523438 C-0.06515625 56.85533203 -0.8334375 56.09542969 -1.625 55.3125 C-2.40101563 54.54099609 -3.17703125 53.76949219 -3.9765625 52.97460938 C-5.40852934 51.55134372 -6.84152228 50.12910916 -8.27587891 48.70825195 C-9.52032439 47.47526058 -10.76126834 46.23873166 -12 45 C-11.53125 42.3671875 -11.53125 42.3671875 -10.5 38.875 C-10.11464576 37.53067391 -9.73203335 36.18556008 -9.3515625 34.83984375 C-9.13661133 34.08429199 -8.92166016 33.32874023 -8.70019531 32.55029297 C-7.03959678 26.50196234 -5.59882565 20.39404231 -4.10742188 14.30224609 C-2.91070244 9.46247902 -1.68665314 4.69853375 0 0 Z " fill="#CFCFCF" transform="translate(400,666)"/>
<path d="M0 0 C2.69526 2.69526 2.82224204 4.91167188 3.62109375 8.6328125 C3.83923485 9.63705765 3.83923485 9.63705765 4.06178284 10.66159058 C4.3702688 12.08826199 4.67517576 13.5157112 4.97680664 14.94384766 C5.42581451 17.06967505 5.88461634 19.19316998 6.34570312 21.31640625 C7.83051923 28.20126619 9.22476899 35.09597681 10.49609375 42.0234375 C12.13274961 50.93531475 14.10853901 59.76503716 16.09863281 68.60351562 C19.33221937 82.99732741 19.33221937 82.99732741 20 90 C17.33399497 91.10578618 14.66722466 92.20966252 12 93.3125 C10.88431641 93.7755957 10.88431641 93.7755957 9.74609375 94.24804688 C9.00488281 94.55419922 8.26367188 94.86035156 7.5 95.17578125 C6.8296875 95.45333252 6.159375 95.73088379 5.46875 96.0168457 C1.99895364 97.39865642 -1.50034548 98.69567104 -5 100 C-5.78844403 90.31583898 -6.57119202 80.63123856 -7.34690857 70.94604969 C-7.70737727 66.44761182 -8.06971904 61.94934206 -8.43652344 57.45141602 C-8.7912221 53.10104841 -9.14076288 48.75029292 -9.48690796 44.39923668 C-9.61905791 42.7491378 -9.7529862 41.09918023 -9.88882446 39.44938087 C-12.16897023 11.70962261 -12.16897023 11.70962261 -8.59375 7.32421875 C-7.08984375 5.94726562 -7.08984375 5.94726562 -5.5 4.6875 C-4.97535156 4.22150391 -4.45070313 3.75550781 -3.91015625 3.27539062 C-2.63490972 2.15085505 -1.32115722 1.07022314 0 0 Z " fill="#E6E6E6" transform="translate(340,560)"/>
<path d="M0 0 C5.4403974 2.41786771 9.58593784 6.14494341 13 11 C13.93944095 15.01825549 13.38642961 18.63216759 12.8125 22.6875 C12.61778119 24.53550832 12.42346492 26.3835682 12.23603821 28.23233032 C12.09087091 29.63936854 11.93928893 31.04575598 11.78215027 32.45150757 C10.99842435 39.53454217 10.47779746 46.63032102 9.9765625 53.73828125 C9.84839394 55.55062508 9.84839394 55.55062508 9.71763611 57.39958191 C9.54398139 59.86503838 9.37080142 62.33052833 9.1980896 64.79605103 C8.77771392 70.77115551 8.34457106 76.74522595 7.90234375 82.71875 C7.82629913 83.78221146 7.75025452 84.84567291 7.67190552 85.94136047 C7.56155472 87.42348274 7.56155472 87.42348274 7.44897461 88.93554688 C7.38616806 89.79627808 7.32336151 90.65700928 7.25865173 91.54382324 C6.99468017 94.05051755 6.4943215 96.52839251 6 99 C-2.25 95.7 -10.5 92.4 -19 89 C-13.12866591 59.23157366 -7.15117083 29.49302751 0 0 Z " fill="#E7E7E7" transform="translate(682,561)"/>
<path d="M0 0 C0.64475784 0.21472458 1.28951569 0.42944916 1.95381165 0.65068054 C4.06043186 1.35380775 6.16409669 2.06536367 8.26782227 2.77709961 C9.73737798 3.26944125 11.20711255 3.76124935 12.67701721 4.25254822 C16.52730174 5.54104384 20.37512776 6.83673122 24.22247314 8.13397217 C28.15604178 9.45885135 32.09191119 10.77685815 36.02758789 12.09545898 C43.73622612 14.67926361 51.44227866 17.27067655 59.14672852 19.86694336 C59.14672852 20.19694336 59.14672852 20.52694336 59.14672852 20.86694336 C12.28672852 20.86694336 -34.57327148 20.86694336 -82.85327148 20.86694336 C-79.75332462 18.80031211 -77.08552895 17.80203022 -73.56518555 16.60449219 C-72.61579102 16.27977684 -72.61579102 16.27977684 -71.6472168 15.94850159 C-69.55614645 15.2351952 -67.46278836 14.5289526 -65.36889648 13.82397461 C-64.65223564 13.58184423 -63.9355748 13.33971386 -63.19719696 13.0902462 C-59.40423298 11.80899335 -55.60949852 10.53315278 -51.81323242 9.26171875 C-47.90042057 7.95010671 -43.99398831 6.62047886 -40.08874893 5.28651905 C-37.07741831 4.26156767 -34.06168237 3.25010005 -31.04460907 2.24219322 C-29.60290062 1.75799177 -28.16286423 1.26878081 -26.724617 0.77439308 C-24.70720584 0.08234489 -22.68425709 -0.5903061 -20.65893555 -1.25878906 C-18.93710052 -1.83931282 -18.93710052 -1.83931282 -17.18048096 -2.43156433 C-11.06249313 -3.72145048 -5.80590083 -1.95015863 0 0 Z " fill="#E7E7E7" transform="translate(522.853271484375,858.133056640625)"/>
<path d="M0 0 C0.66 0.33 1.32 0.66 2 1 C1.01 2.485 1.01 2.485 0 4 C1.21429688 4.37640625 2.42859375 4.7528125 3.6796875 5.140625 C7.66434144 6.46624373 11.4805311 8.03523427 15.3203125 9.734375 C16.98900391 10.47107422 16.98900391 10.47107422 18.69140625 11.22265625 C20.99281539 12.24637749 23.28968581 13.28035975 25.58203125 14.32421875 C26.69191406 14.81019531 27.80179687 15.29617188 28.9453125 15.796875 C29.94062988 16.24385742 30.93594727 16.69083984 31.96142578 17.15136719 C38.40202535 18.95013981 43.97483319 16.45152673 49.83203125 13.91015625 C50.54985275 13.60556992 51.26767426 13.30098358 52.00724792 12.98716736 C53.512313 12.34642346 55.01566018 11.70163052 56.51733398 11.05297852 C58.81918357 10.05961571 61.12677686 9.08067038 63.43554688 8.10351562 C64.90139953 7.47739967 66.36690707 6.85047497 67.83203125 6.22265625 C68.52158401 5.92988297 69.21113678 5.63710968 69.92158508 5.33546448 C72.71084528 4.12472507 74.82948938 3.17051062 77 1 C79.05139812 4.07709718 79.89051453 6.53470557 80.9375 10.0625 C81.28167969 11.21621094 81.62585938 12.36992188 81.98046875 13.55859375 C82.31691406 14.69425781 82.65335938 15.82992187 83 17 C83.45826172 18.47146484 83.45826172 18.47146484 83.92578125 19.97265625 C84.19777344 20.84792969 84.46976563 21.72320313 84.75 22.625 C84.99234375 23.40101563 85.2346875 24.17703125 85.484375 24.9765625 C86 27 86 27 86 30 C76.00748944 28.50893098 66.22184357 26.27715036 56.4152832 23.88085938 C54.42388017 23.39634013 52.42923012 22.92767036 50.43359375 22.4609375 C49.26884521 22.18040527 48.10409668 21.89987305 46.90405273 21.61083984 C38.22143784 20.25233178 30.25323174 21.02393099 21.73828125 22.96875 C20.82161179 23.1685144 19.90494232 23.36827881 18.960495 23.57409668 C16.07535325 24.20538083 13.19401068 24.85236641 10.3125 25.5 C8.33942377 25.93464398 6.36611792 26.36824698 4.39257812 26.80078125 C-0.40768211 27.85519182 -5.20460599 28.9236842 -10 30 C-9.09078997 20.51709181 -9.09078997 20.51709181 -7.6953125 16.2890625 C-7.44136719 15.51949219 -7.18742187 14.74992188 -6.92578125 13.95703125 C-6.66152344 13.18746094 -6.39726562 12.41789063 -6.125 11.625 C-5.74021484 10.43583984 -5.74021484 10.43583984 -5.34765625 9.22265625 C-5.09113281 8.46082031 -4.83460938 7.69898438 -4.5703125 6.9140625 C-4.34102051 6.2329541 -4.11172852 5.5518457 -3.87548828 4.85009766 C-2.89117758 2.77003449 -1.70421163 1.52613309 0 0 Z " fill="#CFCFCF" transform="translate(474,637)"/>
<path d="M0 0 C2.06703274 2.06703274 2.65378874 3.29510483 3.68896484 5.97363281 C4.01086288 6.79862274 4.33276093 7.62361267 4.66441345 8.47360229 C5.00976639 9.37434479 5.35511932 10.27508728 5.7109375 11.203125 C6.07550552 12.14100861 6.44007355 13.07889221 6.81568909 14.04519653 C8.0067662 17.11168684 9.19078244 20.18085498 10.375 23.25 C12.00686703 27.45660326 13.64227429 31.66182815 15.27734375 35.8671875 C15.68221512 36.91004913 16.08708649 37.95291077 16.50422668 39.02737427 C20.39241426 49.03442433 24.37110561 59.0036809 28.38232422 68.96191406 C29.22928434 71.06674498 30.07336645 73.17273802 30.91357422 75.28027344 C31.60306642 77.00632808 32.30157048 78.72883169 33.01220703 80.44628906 C35.11127618 85.66617145 35.11127618 85.66617145 34 89 C33.11699219 88.23816406 32.23398437 87.47632813 31.32421875 86.69140625 C30.1120722 85.64832938 28.89982541 84.60536898 27.6875 83.5625 C27.05682617 83.01843506 26.42615234 82.47437012 25.77636719 81.91381836 C22.78829767 79.34653472 19.79105026 76.80698467 16.69140625 74.375 C15.72074219 73.611875 14.75007813 72.84875 13.75 72.0625 C12.44289063 71.05896484 12.44289063 71.05896484 11.109375 70.03515625 C6.45361566 65.54321067 6.41870611 59.52656904 5.78125 53.4140625 C5.62613953 52.0130983 5.62613953 52.0130983 5.46789551 50.58383179 C5.13856358 47.59824327 4.81888586 44.61172063 4.5 41.625 C4.07564405 37.72105367 3.64733929 33.81754601 3.21875 29.9140625 C3.11618896 28.97121399 3.01362793 28.02836548 2.90795898 27.0569458 C2.16738417 20.31255166 1.30898401 13.59303528 0.34960938 6.87646484 C0 4 0 4 0 0 Z " fill="#D0D0D0" transform="translate(416,740)"/>
<path d="M0 0 C0.33 0 0.66 0 1 0 C0.25129348 11.17558109 -1.01457671 22.26853856 -2.43139648 33.375 C-2.61706441 34.83332828 -2.80269291 36.29166159 -2.98828125 37.75 C-3.07941696 38.46188477 -3.17055267 39.17376953 -3.26445007 39.90722656 C-3.79213953 44.1003382 -4.21338575 48.28561613 -4.54296875 52.5 C-5.6500063 65.21131894 -5.6500063 65.21131894 -9.17578125 69.8828125 C-11.98856168 72.21933344 -14.89864945 74.06639513 -18 76 C-20.39580785 77.92931966 -22.69464571 79.96402665 -25 82 C-30.54481641 86.84827214 -30.54481641 86.84827214 -34 88 C-31.75101655 79.81952833 -28.76190876 72.00118443 -25.625 64.125 C-25.15578125 62.93519531 -24.6865625 61.74539063 -24.203125 60.51953125 C-22.06264574 55.10920384 -19.89229489 49.71495706 -17.63671875 44.3515625 C-14.01398199 35.70731006 -10.61880951 26.97148301 -7.1875 18.25 C-6.48773724 16.47391616 -5.78786823 14.69787418 -5.08789062 12.921875 C-3.39070309 8.6150644 -1.69494978 4.30769173 0 0 Z " fill="#D0D0D0" transform="translate(606,741)"/>
<path d="M0 0 C3.57480389 3.57480389 3.70188268 9.03957825 4.6875 13.875 C4.92533203 14.97714844 5.16316406 16.07929687 5.40820312 17.21484375 C5.62798828 18.27574219 5.84777344 19.33664062 6.07421875 20.4296875 C6.37718872 21.88737549 6.37718872 21.88737549 6.6862793 23.37451172 C7 26 7 26 6 30 C0.39 24.39 -5.22 18.78 -11 13 C-9.07859132 9.15718264 -7.4073184 7.19568073 -4.375 4.25 C-3.55773437 3.45078125 -2.74046875 2.6515625 -1.8984375 1.828125 C-0.95871094 0.92320312 -0.95871094 0.92320312 0 0 Z " fill="#CCCCCC" transform="translate(340,560)"/>
<path d="M0 0 C3.55577773 1.52506981 5.98543438 3.62472787 8.75 6.3125 C9.54921875 7.07175781 10.3484375 7.83101562 11.171875 8.61328125 C13.27513307 11.35920151 13.40592504 12.62724044 13 16 C12.67 15.01 12.34 14.02 12 13 C6.70295797 17.38132997 2.08145845 22.00638723 -2.3359375 27.27734375 C-2.88507812 27.84582031 -3.43421875 28.41429687 -4 29 C-4.66 29 -5.32 29 -6 29 C-5.38095185 25.47809362 -4.75368633 21.9576976 -4.125 18.4375 C-3.95097656 17.44685547 -3.77695312 16.45621094 -3.59765625 15.43554688 C-2.65551439 10.18397835 -1.58650382 5.09539289 0 0 Z " fill="#CECECE" transform="translate(682,561)"/>
<path d="M0 0 C0.66 0.33 1.32 0.66 2 1 C1.4225 1.55429687 0.845 2.10859375 0.25 2.6796875 C-0.4925 3.40414062 -1.235 4.12859375 -2 4.875 C-2.7425 5.59429688 -3.485 6.31359375 -4.25 7.0546875 C-6.22293325 8.81170957 -6.22293325 8.81170957 -6 11 C-8.375 12.6875 -8.375 12.6875 -11 14 C-11.66 13.67 -12.32 13.34 -13 13 C-8.71 8.71 -4.42 4.42 0 0 Z " fill="#999999" transform="translate(622,723)"/>
</svg>
